<?xml version="1.0" encoding="UTF-8" standalone="no"?>
<svg
   version="1.0"
   width="740.83716"
   height="521.24719"
   viewBox="0 0 740.83716 521.24719"
   preserveAspectRatio="xMidYMid"
   id="svg617"
   sodipodi:docname="Züri-Hunters-Logo.svg"
   inkscape:version="1.4 (e7c3feb1, 2024-10-09)"
   xml:space="preserve"
   xmlns:inkscape="http://www.inkscape.org/namespaces/inkscape"
   xmlns:sodipodi="http://sodipodi.sourceforge.net/DTD/sodipodi-0.dtd"
   xmlns="http://www.w3.org/2000/svg"
   xmlns:svg="http://www.w3.org/2000/svg"><defs
   id="defs617" /><sodipodi:namedview
   id="namedview617"
   pagecolor="#ffffff"
   bordercolor="#000000"
   borderopacity="0.25"
   inkscape:showpageshadow="2"
   inkscape:pageopacity="0.0"
   inkscape:pagecheckerboard="0"
   inkscape:deskcolor="#d1d1d1"
   inkscape:zoom="0.87932707"
   inkscape:cx="-1868.4743"
   inkscape:cy="690.86921"
   inkscape:window-width="2192"
   inkscape:window-height="1186"
   inkscape:window-x="311"
   inkscape:window-y="25"
   inkscape:window-maximized="0"
   inkscape:current-layer="g516"
   inkscape:export-bgcolor="#ffffff00"><inkscape:page
     x="0"
     y="0"
     width="740.83716"
     height="521.24719"
     id="page1"
     margin="0"
     bleed="0" /></sodipodi:namedview>

<g
   inkscape:groupmode="layer"
   id="layer1"
   inkscape:label="züro-lion"
   transform="translate(1398.4177,-2438.4378)"><path
     id="path1-58-3"
     style="display:inline;fill:#21150e;fill-opacity:1"
     d="m -1029.3352,2438.7811 c -40.5635,2.9868 -52.2997,9.213 -62.9184,12.1288 -33.6158,15.8959 -15.05,20.2671 -2.2141,24.0753 6.4316,2.8447 22.8561,7.3882 23.7869,7.0437 0.7503,-0.2777 -12.9995,3.2044 -16.8995,5.3044 -20.6,11 -39.7992,28.1004 -59.6992,52.9004 -18.3,22.8 -25.8008,35.1996 -25.8008,42.5996 0,3.4 0.2008,3.7012 2.8008,3.7012 1.5,0 6.6996,-0.6996 11.5996,-1.5996 4.8,-0.8 8.9996,-1.4012 9.0996,-1.2012 0.2,0.2 -2.2996,3.4012 -5.5996,7.2012 -3.2,3.8 -9.7004,12.4992 -14.4004,19.1992 -9.6,13.8 -10.1989,16.1992 -5.7989,22.1992 1.5,2 -1.4015,-0.6996 -6.6015,-6.0996 -21.7,-22.7 -46.1985,-32.6992 -79.8985,-32.6992 -16.9,0 -27.6011,1.4988 -40.2011,5.7988 -25.4,8.7 -44.5,23.9 -57.5,46 -2.5,4.4 -5.1,7.1012 -9,9.7012 -6.7,4.5 -15.9004,14.3988 -20.4004,21.7988 -1.8,3.1 -4.6985,9.6004 -6.3985,14.4004 -3.4,9.7 -3.4015,8.2008 -2.6015,47.3008 0.4,18.1 0.5,18.6996 3.5,25.5996 5.6,12.8 12.2015,21.8992 37.6015,51.6992 2.1,2.5 3.0993,5.5012 4.6993,13.7012 1.1,5.8 3.1996,16.6 4.5996,24 4.8,25.1 13.1011,48.9992 22.7011,65.1992 l 4.5997,7.5996 c 3.1929,5.4929 2.705,4.6836 2.705,4.6836 l 352.45224,12.1322 66.78959,16.5359 69.70693,-14.8138 76.05412,4.6297 91.42682,-8.5613 3.56445,-14.7059 v -18.5996 c 0,-21.9 -0.99922,-26.4008 -10.19922,-44.8008 l -5.59961,-11.1992 c -15.59064,-27.054 -19.93584,-27.887 -34.69144,-35.6894 -2.6581,-0.4968 -16.5093,-7.5114 -18.6093,-9.6114 -0.7,-0.7 -3.6,-5.9988 -6.5,-11.7988 -11.3,-23.2 -23.2994,-34.6004 -54.1993,-51.4004 -5.8,-3.1 -8.5,-5.1004 -8,-5.9004 0.4,-0.7 3.1989,-4.2992 6.2989,-8.1992 8.2999,-10.4 12.4,-16.4004 15.5,-22.4004 5.2,-10.5 5.8011,-13.0996 6.7011,-29.5996 0.5,-8.8 1.0985,-20.0004 1.3985,-24.9004 0.4,-5.8 0.1004,-9.7992 -0.5996,-11.6992 -1.7,-4 -18.8995,-20.2004 -29.1992,-27.4004 l -8.5,-6 -0.5,-10 c -0.6,-12 -2.5,-17.1996 -9.5,-24.5996 l -4.8008,-5.1016 0.3008,-12.6992 c -2.202,-14.0726 -2.0658,-18.7894 -6.2012,-31.6992 -0.1125,-1.1426 -1.2688,-5.6564 -3.8471,-10.1903 -4.4921,-16.784 -15.41388,-36.1953 -29.64008,-45.9277 -1.58761,-1.2543 -13.96815,-11.3643 -22.08238,-12.9553 -42.19904,-8.2742 -54.60519,-3.1145 -64.5045,-5.4084 -18.36346,-4.2552 -57.23172,-11.7006 -84.78042,-9.6721 z m -238.2451,175.0522 c 7.4,-0.4 11.1,-0.098 20.5,2.1016 35,7.9 61.6996,32.6996 71.0996,66.0996 3.1,10.8 3.3,29.9 0.5,39.5 -10.2,34.6 -35.8996,59.3004 -68.0996,65.4004 -4.4,0.8 -9.1,1.5988 -10.5,1.7988 -5.6,0.8 -18.9994,-1.2 -27.1992,-4 -9.6,-3.2 -24.3002,-11.5 -21.5,-12 3.2998,-0.7 2.1003,-6.2992 -2.5997,-11.6992 -6,-7 -7.7,-9.9004 -7,-12.4004 0.7,-2.6 1.4989,-2.598 3.7989,-0.1 6.5,7.1 27.8008,15.8 39.3008,16 3,0 3.1992,-0.2 3.1992,-3.5 0,-3.3 -0.2996,-3.6 -6.5996,-6.5 -10.6,-4.8 -22.1004,-13.8008 -32.9004,-25.8008 l -4.7989,-5.1992 1.2989,-4 c 0.7,-2.2 1.6,-4 2,-4 0.3,0 2.1004,1.6004 3.9004,3.4004 7.9,8.2 25.0996,17.9996 39.5996,22.5996 8.8,2.8 32.8,4 40,2 4.1,-1.2 4.5,-1.5 4.5,-4.5 v -3.2012 l -10.1992,-0.7988 c -18.1,-1.3 -30.3004,-5.4996 -46.4004,-16.0996 -4.9,-3.2 -12.2008,-9.1016 -16.3008,-13.1016 l -7.2988,-7.1992 3.1992,-5.8008 c 1.8,-3.2 4.4996,-7.6996 6.0996,-10.0996 1.6,-2.4 2.9004,-5.5988 2.9004,-7.2988 0,-2.6 -0.2989,-2.9004 -3.2989,-2.9004 -2.9,0 -4.4015,1.1004 -10.1015,6.9004 l -6.5996,7 -3.5996,-7 -3.5,-7 3,-3.7012 c 1.6,-2 4.3,-4.9996 6,-6.5996 2.3,-2.2 3.0996,-3.9008 3.0996,-6.3008 0,-3.1 -0.1996,-3.2988 -3.5996,-3.2988 -2.7,0 -4.5993,0.9 -7.6993,3.5 l -4.2011,3.5996 -0.7989,-3.3008 c -0.5,-1.8 -0.6007,-5.7 -0.3007,-8.5 0.3,-2.9 0.8992,-7.6992 1.1992,-10.6992 0.6,-5.3 0.9004,-5.6004 5.9004,-8.9004 12.5,-8.3 28.2,-13.5004 44,-14.4004 z m -65.5,36.2012 0.1,6 c 0,3.3 0.4008,8.5988 0.8008,11.7988 0.7,5.4 0.4992,5.9012 -2.8008,10.7012 -3.3,4.8 -4.4,5.2988 -8.5,4.2988 -1.6,-0.4 -1.7992,-1.1984 -1.2988,-5.3984 0.5996,-5 6.1992,-19.1004 9.6992,-24.4004 z m 177.334,22.9629 c 0.1609,0.225 0.4156,0.9121 0.7656,2.0371 2.2,7.2 4,20.8 4,31 0.1,38.1 -20.4996,74.8 -53.5996,95.5 -18,11.3 -26.1,17.0004 -30,20.9004 -2.1,2.3 -4.2,4.0996 -4.5,4.0996 -1.1,0 -14.1992,-11.2012 -13.6992,-11.7012 0.2998,-0.2 3.7992,-0.8984 7.6992,-1.3984 35,-4.9 65.8004,-26.5008 80.9004,-56.8008 10.2,-20.5 13.5996,-45.9 9.5996,-72.5 -1.275,-8.325 -1.6489,-11.8117 -1.166,-11.1367 z m -169.1817,19.6992 c 0.5854,0.1717 1.5973,1.4004 2.9473,3.8379 2.5,4.5 2.7,5.4996 1.5,7.0996 -1.2,1.8 -1.4985,1.5008 -3.3985,-3.6992 -1.8125,-4.875 -2.0244,-7.5244 -1.0488,-7.2383 z"
     sodipodi:nodetypes="sccsccssccccccscccccccccccccccccccssccsccccccccccsccccccssssccccsccccccsccccscccsccccccsssccccccssccccccsscccsccccsccccsccccsscccs"
     inkscape:export-filename="../Documents/Zürich Hunters/lion.svg"
     inkscape:export-xdpi="96"
     inkscape:export-ydpi="96" /><g
     fill="#b6781b"
     id="g230-9-5"
     transform="translate(-1505.4178,2292.8525)"
     style="display:inline"
     inkscape:label="orange"><path
       d="m 598.2,646.9 c -4.7,-3 -6.2,-6.7 -6.2,-14.7 0,-6.1 1.4,-12.2 4.6,-19.7 0.4,-1.1 -1.8,0.9 -5,4.5 -6.4,7.1 -9.9,13.3 -11.7,20.5 -1.2,4.7 -1.2,4.7 -4.7,4.1 -8.1,-1.3 -12.5,-10.6 -10.1,-21.7 1.2,-5.5 7.4,-19.4 10.6,-23.8 l 1.8,-2.4 -2.5,1.3 c -7.3,3.9 -17.6,18.6 -21.9,31.1 l -1.7,5 -4.3,-3.1 c -10.2,-7.5 -9.3,-20.2 2.9,-38.1 l 3.9,-5.8 -3.3,2 c -5.4,3.2 -15.3,13.5 -18.7,19.4 -1.7,3 -3.5,5.7 -3.9,6 -1.3,0.8 -6.2,-6.1 -7,-9.8 -1.6,-7.5 5.4,-18.1 19,-28.6 8.4,-6.5 19.9,-14.1 21.4,-14.1 0.3,0 0.6,1.1 0.6,2.5 0,2 -0.5,2.5 -2.5,2.5 -2,0 -2.5,0.5 -2.5,2.5 0,2 -0.5,2.5 -2.6,2.5 -3.1,0 -5.3,2.5 -5.4,5.8 0,2 -0.5,2.2 -5.4,2.2 -4.9,0 -5.5,0.2 -5.8,2.3 -0.2,1.2 -1.3,2.6 -2.5,3.2 -1.3,0.5 -2.3,1.6 -2.3,2.3 0,0.8 -0.9,1.6 -2,1.9 -1.1,0.3 -2,1.4 -2,2.4 0,1.1 -0.6,1.9 -1.2,2 -1.5,0.1 8.1,2.9 10,2.9 0.6,0 1.2,-1 1.2,-2.3 0,-1.3 0.5,-2.8 1.2,-3.5 0.7,-0.7 2.2,-1.2 3.5,-1.2 1.6,0 2.3,-0.6 2.3,-1.9 0,-2.1 4.4,-4.1 9.2,-4.1 2.8,0 2.9,0.2 2.6,3.8 -0.2,2.7 -0.9,4 -2.5,4.7 -1.3,0.5 -2.3,1.8 -2.3,2.7 0,1 -0.7,1.8 -1.5,1.8 -0.9,0 -1.5,0.9 -1.5,2.4 0,1.4 -0.7,3.1 -1.5,4 -1.9,1.9 -1.9,3.1 0.1,6.2 1.2,1.8 1.5,3.7 1.1,6.9 -0.5,3.3 -0.3,4.5 0.6,4.5 1.6,0 4.7,-6.2 4.7,-9.5 0,-1.8 0.7,-2.5 2.9,-3 2,-0.4 3.1,-1.3 3.3,-2.8 0.2,-1.7 1.1,-2.3 3.6,-2.5 1.7,-0.2 3.2,-0.7 3.2,-1.3 0,-0.5 -0.4,-0.9 -1,-0.9 -0.5,0 -1,-1.6 -1,-3.5 v -3.6 l 6.8,0.3 6.7,0.3 0.3,3.8 c 0.2,2.8 0,3.7 -1.2,3.7 -0.9,0 -1.6,0.7 -1.6,1.5 0,2.5 -4.3,10.5 -5.7,10.5 -0.8,0 -1.3,1.4 -1.4,3.8 -0.2,7.1 0.3,11.7 1.2,12 0.5,0.2 0.9,1 0.9,1.8 0,0.9 1.1,1.4 2.8,1.4 2.4,0 3.2,-0.7 4.7,-4 1,-2.2 2.4,-4 3.2,-4 0.7,0 1.3,-0.9 1.3,-2 0,-1.3 0.7,-2 2,-2 1.4,0 2,-0.7 2,-2.3 0,-1.3 1.1,-3.4 2.5,-4.7 2,-1.9 3.2,-2.2 6.5,-1.7 3,0.4 4,0.2 4,-0.9 0,-0.9 1.2,-1.4 3.6,-1.4 3.5,0 3.5,0.1 3.2,3.8 -0.3,3.6 -0.2,3.7 5.2,6 4.5,1.9 13.7,5.1 14.8,5.2 0.1,0 0.2,-1.6 0.2,-3.5 0,-3.3 0.2,-3.5 3.4,-3.5 3.2,0 3.4,0.2 4,4.4 l 0.7,4.3 6.1,1 c 8.4,1.4 14.8,0 14.8,-3.1 0,-2.2 0.4,-2.3 10.6,-2.9 6.1,-0.4 11.2,-0.3 11.8,0.2 0.6,0.5 2.9,1.3 5.1,1.7 2.2,0.4 5,1.5 6.2,2.4 1.2,1 5,2 8.3,2.4 3.4,0.4 6.8,1 7.6,1.3 0.9,0.3 1.4,-0.2 1.4,-1.6 0,-1.7 0.6,-2.1 3.5,-2.1 2.8,0 3.5,0.4 3.5,1.9 0,2 3.4,3.1 9.9,3.1 h 3.6 l -5.2,-3.5 c -2.9,-1.9 -6.1,-3.5 -7.3,-3.5 -1.6,0 -2,-0.6 -2,-3.5 V 614 h 10.8 c 15.3,0 24.2,-1 24.2,-2.6 0,-0.8 -0.7,-1.4 -1.5,-1.4 -1,0 -1.5,-1.1 -1.5,-3.5 0,-3.3 0.2,-3.5 3.5,-3.5 2.8,0 3.5,0.4 3.5,2 0,1.7 0.7,2 5,2 4.3,0 5,0.3 5,2 0,1.7 0.5,1.9 2.8,1.4 7.7,-1.7 13.2,-3.8 13.2,-5.1 0,-1.2 1.2,-1.4 5.3,-1.2 6.2,0.4 9.7,-0.7 9.7,-2.8 0,-1.2 0.9,-1.4 4,-1.1 3.8,0.3 4,0.2 4,-2.4 0,-1.6 0.5,-2.8 1,-2.8 0.6,0 1,-0.9 1,-2 0,-1.6 0.7,-2 3.5,-2 3.1,0 3.5,0.3 3.5,2.5 0,5.6 4.5,0.3 5.4,-6.4 0.5,-4 0.2,-5.9 -1.6,-9.8 -1.3,-2.6 -2.6,-4.9 -3,-5.1 -0.5,-0.2 -0.8,-1 -0.8,-1.8 0,-0.8 -0.4,-1.4 -1,-1.4 -0.5,0 -1,-0.9 -1,-2 0,-1.1 -0.7,-2 -1.5,-2 -1,0 -1.5,-1 -1.5,-2.9 0,-2.5 -0.4,-3 -2.7,-3.3 -2.4,-0.3 -2.8,-0.8 -3.1,-4 -0.3,-3.6 -0.5,-3.8 -3.8,-3.8 -2.7,0 -3.4,-0.4 -3.4,-2 0,-1.1 -0.7,-2 -1.5,-2 -0.8,0 -1.5,0.6 -1.5,1.4 0,0.9 -1.8,1.5 -5.2,2 -8.4,1 -8.8,0.9 -8.8,-1.9 0,-1.8 -0.5,-2.5 -2,-2.5 -1.6,0 -2,-0.7 -2,-3.5 0,-3.1 0.3,-3.5 2.5,-3.5 1.6,0 2.5,-0.6 2.5,-1.5 0,-0.8 -0.9,-1.5 -1.9,-1.5 -3.4,0 -5.1,-1.2 -5.1,-3.6 0,-2.1 0.2,-2.3 2.7,-1.3 5.8,2.2 20.1,12.7 27.8,20.4 15.6,15.6 23.6,31.1 25.6,49.6 1.2,10.9 0.7,22.2 -1.2,27.6 -0.9,2.8 -1.3,3.1 -2.5,1.8 -1.9,-1.8 -7.6,-2.9 -10.5,-2 -1.2,0.4 -4.3,2 -6.9,3.5 -5.1,3 -24.7,7.8 -42.5,10.5 -20.1,3 -53.9,1.5 -81.1,-3.7 l -11.4,-2.1 0.6,-3.6 0.7,-3.6 -3.9,3.5 c -8.9,8 -10.4,8.5 -25.4,8.4 -11.5,-0.1 -14.5,-0.5 -20.7,-2.6 -4,-1.3 -7.3,-2.1 -7.3,-1.6 0,1.7 3.1,8.2 4.7,10 1.5,1.7 1.2,1.8 -7.8,1.8 -7.8,0 -9.9,-0.4 -12.7,-2.1 z M 782.8,542.2 c 0.2,-0.7 -0.3,-1.2 -1.2,-1.2 -0.9,0 -1.6,0.7 -1.6,1.6 0,1.7 2.2,1.4 2.8,-0.4 z"
       id="path170-6-8" /><path
       d="m 513.3,636 c -3.9,-1.6 -6,-15.2 -2.7,-18.4 0.8,-0.9 1.8,-1.6 2.2,-1.5 1,0.1 15,17.3 15.8,19.3 0.5,1.4 -0.3,1.6 -6.2,1.5 -3.8,0 -7.9,-0.4 -9.1,-0.9 z"
       id="path171-3-1" /><path
       d="m 241.7,632.3 c -7.6,-0.8 -29.2,-24.5 -37.7,-41.3 -7.1,-14.2 -25,-66.6 -25,-73.3 0,-2.4 0.4,-2.6 4.8,-2.9 l 4.7,-0.3 -3,-1.5 c -4.1,-2 -14.3,-8.7 -18.5,-12.3 -9.6,-8.1 -31.2,-37.5 -34.3,-46.8 -4.8,-14.1 -0.7,-33.4 8.9,-41.9 6.7,-5.8 19.5,-8.7 24.2,-5.4 1.9,1.3 5.2,6.3 5.2,7.9 0,0.3 -2.5,1.6 -5.5,3 -3.1,1.3 -6.9,3.4 -8.5,4.5 l -3,2.1 v -3 c 0,-1.7 0.5,-3.1 1.1,-3.1 0.6,0 1.7,-0.7 2.5,-1.5 0.9,-0.8 2.6,-1.5 3.9,-1.5 3,0 3.9,-2.4 1.6,-4.4 -2.6,-2.4 -6.1,-2 -12.7,1.4 -3.2,1.6 -6.5,3 -7.1,3 -0.7,0 -1.3,0.9 -1.3,2 0,1.1 -0.4,2 -1,2 -0.5,0 -1,0.7 -1,1.5 0,0.8 -0.7,1.5 -1.5,1.5 -1,0 -1.5,1 -1.6,2.8 0,1.5 -0.1,5.5 -0.3,8.8 -0.1,3.4 0.1,7 0.5,8 0.7,1.7 0.8,1.7 0.8,0.2 0.1,-1 0.7,-1.8 1.4,-1.8 0.7,0 1.8,-2 2.5,-4.4 0.6,-2.4 1.8,-5.1 2.7,-5.9 0.8,-0.9 1.5,-2 1.5,-2.6 0,-0.6 1.3,-1.1 2.9,-1.1 h 3 l -3.5,5.7 c -1.8,3.1 -3.6,7 -3.8,8.7 -1.3,8.7 -1.4,10.6 -0.5,10.1 0.5,-0.4 0.9,-1.2 0.9,-1.8 0,-2.4 6.3,-8.8 10.9,-11.1 5.7,-2.9 10.1,-3.9 13.5,-3 2.2,0.5 2.6,1.2 2.6,4 0,2.4 -0.5,3.4 -1.5,3.4 -1.2,0 -1.5,1.3 -1.5,5.9 0,3.3 0.4,7.1 1,8.5 0.8,2.1 0.5,2.8 -1.7,4.6 -2.4,1.8 -2.5,2.3 -1.4,4.8 1.8,3.8 9,13.8 14.5,19.9 5,5.5 21.2,16.9 29.1,20.4 l 4.7,2.1 -4.1,4.2 c -2.2,2.3 -4.1,4.4 -4.1,4.8 0,0.3 3,1.1 6.7,1.8 5.7,1.1 7.2,1.9 10.6,5.4 3.5,3.7 3.7,4.1 1.8,4.4 -2.2,0.3 -2.7,2.1 -1.3,3.7 1.6,1.8 5.2,13.2 5.2,16.4 0,2.9 -0.2,3.1 -3.6,3.1 h -3.5 l 3.7,6.8 c 2,3.7 5.3,9 7.3,11.7 2,2.8 4.4,6.2 5.4,7.8 1.4,2.1 2.5,2.7 5.2,2.7 3.4,0 3.5,0.1 3.5,3.8 0,2 0.4,4.2 0.8,4.7 2.2,3 13.3,12.5 14.6,12.5 0.8,0 2.1,-1.3 3,-3 l 1.4,-3 h -3.4 c -3.2,0 -3.4,-0.2 -3.4,-3.5 0,-3.3 0.2,-3.5 3.5,-3.5 3.1,0 3.5,0.3 3.5,2.8 0.1,5.3 1.8,-0.1 3.1,-9.7 0.9,-7.2 1,-9.6 0.1,-9.9 -0.7,-0.2 -1.2,-1.2 -1.2,-2.3 0,-1 -0.7,-1.9 -1.5,-1.9 -1.1,0 -1.5,-1.1 -1.5,-3.7 l 0.1,-3.8 3.5,4 c 4.4,5.1 9.9,16.1 12.1,24.5 1.4,5 1.8,10.4 1.8,23.5 0,9.4 -0.3,17.8 -0.7,18.8 -0.7,1.5 -2.5,1.7 -19.5,1.5 -10.3,-0.1 -20.5,-0.3 -22.6,-0.5 z"
       id="path172-1-6" /><path
       d="m 438,621.7 c -14.2,-8.7 -24.9,-19.1 -30.3,-29.4 -5.1,-9.7 -8.6,-19.3 -10.3,-28.1 -1.5,-7.8 -1.7,-27 -0.4,-31.2 0.6,-1.8 0.8,-2 0.9,-0.6 0.1,1.7 22.7,50.9 31.6,68.6 2.4,4.7 6.3,11.6 8.9,15.4 2.5,3.8 4.6,7 4.6,7.2 0,0.8 -1.6,0.2 -5,-1.9 z"
       id="path173-5-3" /><path
       d="m 297.4,610.3 c 1.5,-10 1.8,-27.2 0.6,-32.4 -1.3,-5.6 -6.2,-16.3 -8,-17.4 -3.2,-2 1.7,-11 10,-18.2 9.5,-8.3 23.4,-16 33.8,-18.8 l 5,-1.3 1.2,4.5 c 1,4.2 5.6,14.3 6.4,14.3 0.2,0 0.1,-1.1 -0.1,-2.4 -1.4,-6.9 7.6,-28 17.4,-41.1 6,-8 13.9,-16.3 14.7,-15.4 0.2,0.2 -0.7,3.1 -2.1,6.4 -6.6,16.1 -9.8,39.3 -8.7,64 0.3,8.8 1.2,19.6 1.9,24 0.7,4.4 1.2,8.1 1,8.3 -0.7,0.7 -7.7,-15.5 -8.8,-20.5 l -1.3,-5.5 -2.8,6.6 c -9.7,22.8 -30,41.8 -50.3,47.1 -3.1,0.8 -6.8,1.5 -8.1,1.5 -2.2,0 -2.4,-0.3 -1.8,-3.7 z"
       id="path174-8-8" /><path
       d="m 620,604.5 c 0,-2.4 0.5,-3.5 1.5,-3.5 0.8,0 1.5,-0.7 1.5,-1.5 0,-1 1.1,-1.5 3.5,-1.5 3.3,0 3.5,0.2 3.5,3.5 0,2.4 -0.5,3.5 -1.5,3.5 -0.8,0 -1.5,0.7 -1.5,1.5 0,1 -1.1,1.5 -3.5,1.5 -3.3,0 -3.5,-0.2 -3.5,-3.5 z"
       id="path175-0-6" /><path
       d="m 653.6,601.5 c -0.8,-0.8 -1.9,-1.5 -2.5,-1.5 -0.6,0 -1.1,-0.6 -1.1,-1.4 0,-0.8 -1.3,-1.6 -3,-1.8 -1.6,-0.3 -3,-0.1 -3,0.4 0,0.4 -1.6,0.8 -3.5,0.8 -2.8,0 -3.5,-0.4 -3.5,-1.9 0,-3.5 -1.2,-5.1 -3.6,-5.1 -1.3,0 -2.4,-0.4 -2.4,-0.9 0,-0.5 -1.8,-1.1 -3.9,-1.5 -2.2,-0.3 -4.6,-1.3 -5.5,-2.1 -0.8,-0.8 -2.4,-1.5 -3.5,-1.5 -1.1,0 -2.6,-0.7 -3.5,-1.5 -0.8,-0.8 -2.4,-1.5 -3.5,-1.5 -1.2,0 -2.1,-0.6 -2.1,-1.5 0,-1 -1,-1.5 -3.4,-1.5 -1.9,0 -4.2,-0.7 -5,-1.6 -0.9,-0.8 -1.6,-1.1 -1.6,-0.5 0,0.6 -1.6,1.1 -3.5,1.1 -3.1,0 -3.5,-0.3 -3.5,-2.5 0,-1.8 -0.5,-2.5 -2,-2.5 -1.1,0 -2,-0.7 -2,-1.5 0,-1 -1,-1.5 -3.4,-1.5 -1.9,0 -4.1,-0.7 -5,-1.5 -0.8,-0.8 -2.4,-1.5 -3.5,-1.5 -1.2,0 -2.1,-0.4 -2.1,-1 0,-0.5 -0.9,-1 -2,-1 -1.5,0 -2,-0.7 -2,-2.5 0,-2.5 0.1,-2.5 3.3,-1.1 1.7,0.7 11.8,5.1 22.2,9.6 10.5,4.5 26.5,11.3 35.7,15.1 9.2,3.8 18.5,7.9 20.5,9.2 2.1,1.3 4.5,2.7 5.3,3.2 0.8,0.5 -0.2,-1.4 -2.3,-4.2 -2,-2.8 -3.7,-5.3 -3.7,-5.7 0,-0.3 1.4,-0.6 3,-0.6 2.5,0 3,0.4 3,2.5 0,1.6 0.6,2.5 1.5,2.5 0.8,0 1.5,0.7 1.5,1.5 0,0.8 0.5,1.5 1,1.5 0.6,0 1,1.6 1,3.5 0,3.3 -0.2,3.5 -3.4,3.5 -1.9,0 -4.1,-0.7 -5,-1.5 z"
       id="path176-9-0" /><path
       d="m 724,598.5 c 0,-3.3 0.2,-3.5 3.5,-3.5 3.3,0 3.5,0.2 3.5,3.5 0,3.3 -0.2,3.5 -3.5,3.5 -3.3,0 -3.5,-0.2 -3.5,-3.5 z"
       id="path177-2-2" /><path
       d="m 676,591.6 c 0,-2.3 -0.2,-2.4 -3.2,-1.5 -5.2,1.5 -10.8,1.2 -10.8,-0.6 0,-0.8 0.2,-1.5 0.4,-1.5 0.3,0 5.2,-0.9 10.9,-2 12.2,-2.4 19.8,-4.8 36.8,-12 11.2,-4.8 32.3,-11 37,-11 1.1,0 1.9,0.7 1.9,1.6 0,2.9 -2.7,4.4 -7.7,4.3 -2.6,0 -7.5,0.8 -10.8,1.8 -5.2,1.6 -6,2.2 -6.3,4.6 -0.3,2.4 -0.7,2.7 -4.3,2.7 -2.1,0 -3.9,-0.4 -3.9,-1 0,-0.5 -1.9,0 -4.2,1 -2.4,1.1 -5.3,2 -6.5,2 -1.3,0 -2.3,0.4 -2.3,1 0,0.5 -4.2,2.2 -9.2,3.9 -8.9,2.8 -9.3,3 -9.6,6 -0.3,2.9 -0.6,3.1 -4.3,3.1 -3.5,0 -3.9,-0.3 -3.9,-2.4 z"
       id="path178-4-6" /><path
       d="m 765,582.5 c 0,-3.3 0.2,-3.5 3.5,-3.5 3.3,0 3.5,0.2 3.5,3.5 0,3.3 -0.2,3.5 -3.5,3.5 -3.3,0 -3.5,-0.2 -3.5,-3.5 z"
       id="path179-3-9" /><path
       d="m 775,570 c 0,-2.7 -0.3,-3 -3,-3 -2.4,0 -3,-0.4 -3,-2.1 0,-1.9 0.4,-2.1 3.7,-1.6 2,0.4 3.9,1 4.2,1.4 0.3,0.4 2.4,0.8 4.5,0.9 l 4,0.1 -4.1,-3.7 c -7.5,-6.6 -21.5,-12.2 -36.5,-14.5 -2.6,-0.4 -3.8,-1.1 -3.8,-2.2 0,-1.3 0.9,-1.5 6.2,-0.9 7.6,0.8 21.8,4.5 21.8,5.7 0,0.5 1.1,0.9 2.5,0.9 1.4,0 2.5,0.4 2.5,0.9 0,0.5 1.1,1.2 2.5,1.5 1.4,0.4 2.5,1.1 2.5,1.6 0,0.6 0.7,1 1.5,1 1,0 1.5,1 1.5,2.9 0,2.6 0.4,3 4,3.6 3.9,0.7 4,0.8 4,4.6 0,3.8 -0.1,3.9 -3.4,3.9 -1.9,0 -3.7,-0.6 -3.9,-1.2 -0.3,-0.7 -0.6,-0.3 -0.6,1 -0.1,1.8 -0.7,2.2 -3.6,2.2 -3.2,0 -3.5,-0.2 -3.5,-3 z"
       id="path180-3-0" /><path
       d="m 636.2,567.4 c -4.6,-1.3 -13.9,-4.6 -20.8,-7.3 l -12.5,-4.8 9.2,-5.4 c 5.1,-3 12,-7.9 15.3,-10.9 5.7,-5.3 5.9,-5.4 5.2,-2.5 -0.4,1.7 -2,4.9 -3.6,7.3 -1.7,2.3 -3,4.4 -3,4.6 0,0.9 7.9,-1.8 14.8,-4.9 4.7,-2.2 8.9,-5.1 12.2,-8.5 l 5,-5.1 v 3.3 c 0,1.9 -0.7,4.4 -1.6,5.6 -1.1,1.7 -1.2,2.2 -0.2,2.2 2.7,0 11.5,-4.9 17.8,-9.8 5.8,-4.6 6.5,-4.9 6.8,-3.1 0.5,3.1 -0.5,4.9 -2.8,4.9 -1.1,0 -2,0.7 -2,1.5 0,1.9 -0.1,1.9 4.6,-0.1 5.6,-2.3 13.8,-4.4 20.6,-5.1 l 5.8,-0.6 v 3.6 c 0,2.8 -0.6,4 -3.1,5.9 -7.7,5.7 -16.9,17.6 -16.9,21.8 0,0.9 0.3,1.1 0.8,0.4 1,-1.5 14,-7.4 16.3,-7.4 1.1,0 1.9,-0.4 1.9,-0.9 0,-2 21.1,-8 28.3,-8.1 4.2,0 3.4,2.8 -1,3.6 -8.1,1.3 -15.6,3.6 -23.3,6.9 -4.4,1.9 -11.7,5.1 -16.2,7.1 -6.9,3 -24.8,8.4 -27.9,8.4 -0.5,0 -0.9,-4.1 -0.9,-9.1 v -9.2 l -2.6,3.9 c -1.4,2.1 -4.9,6.3 -7.7,9.2 -6,6.1 -6.6,6.2 -18.5,2.6 z"
       id="path181-9-2" /><path
       d="m 758,569 c 0,-0.5 -0.9,-1 -2,-1 -1.4,0 -2,-0.7 -2,-2.4 0,-1.9 0.7,-2.6 3,-3.1 1.7,-0.4 4.4,-0.4 6.1,0 2.5,0.6 3,1.1 2.5,2.8 -0.3,1.2 -0.6,2.8 -0.6,3.5 0,0.7 -1.4,1.2 -3.5,1.2 -1.9,0 -3.5,-0.4 -3.5,-1 z"
       id="path182-0-1" /><path
       d="m 256,555.5 c 0,-0.8 -0.9,-1.5 -2,-1.5 -1.1,0 -2.3,-0.7 -2.6,-1.5 -0.4,-0.8 -1.2,-1.5 -2,-1.5 -0.9,0 -1.4,-1.1 -1.4,-3 v -3.1 l 4.3,3 c 2.3,1.6 5.8,4.3 7.7,6 l 3.5,3 -3.7,0.1 c -2.7,0 -3.8,-0.4 -3.8,-1.5 z"
       id="path183-5-2" /><path
       d="m 240,544 c 0,-0.5 -0.7,-1 -1.5,-1 -0.8,0 -1.5,-0.9 -1.5,-2 0,-1.5 -0.7,-2 -2.5,-2 -2.8,0 -3.9,-1.6 -3.3,-5 0.3,-1.9 0.6,-1.8 5,1.7 2.5,2.1 6.1,5 8,6.5 l 3.3,2.7 h -3.7 C 241.7,545 240,544.6 240,544 Z"
       id="path184-5-1" /><path
       d="m 761.8,532.8 c -0.2,-1.7 -1.9,-2.7 -8.8,-5 -4.7,-1.5 -8.6,-3.3 -8.8,-3.8 -0.2,-0.6 -1.7,-1 -3.3,-1 -1.9,0 -2.9,-0.5 -2.9,-1.5 0,-0.8 -0.7,-1.5 -1.5,-1.5 -1,0 -1.5,-1.1 -1.5,-3.5 0,-3.1 0.3,-3.5 2.5,-3.5 1.6,0 2.5,-0.6 2.5,-1.5 0,-1 1.1,-1.5 3.5,-1.5 3.3,0 3.5,0.2 3.5,3.4 0,1.9 -0.6,3.7 -1.2,3.9 -0.7,0.3 0.3,0.6 2.2,0.8 3,0.2 2.8,0.3 -1.5,0.8 l -5,0.6 8.5,2.9 c 18.9,6.4 19,6.5 19,9.7 0,2.6 -0.3,2.9 -3.4,2.9 -2.8,0 -3.5,-0.4 -3.8,-2.2 z"
       id="path185-4-7" /><path
       d="m 685.7,520.8 c 0.5,-0.7 3.1,-3.9 5.6,-7.1 2.6,-3.2 4.7,-6.1 4.7,-6.5 0,-0.4 0.7,-1.5 1.4,-2.5 2.1,-2.7 4.6,-1.1 4.6,2.9 0,3.1 -0.3,3.4 -3,3.4 -2.5,0 -3,0.4 -3,2.5 0,1.8 -0.5,2.5 -1.9,2.5 -1.4,0 -2.1,0.8 -2.3,2.8 -0.3,2.3 -0.8,2.8 -3.7,3 -2.8,0.3 -3.3,0.1 -2.4,-1 z"
       id="path186-4-9" /><path
       d="m 754,516 c 0,-1.8 0.5,-3 1.3,-3 0.7,0 1.8,1.4 2.4,3 1.1,2.8 1,3 -1.3,3 -2,0 -2.4,-0.5 -2.4,-3 z"
       id="path187-3-8" /><path
       d="m 750.2,509.5 c -1.4,-2.9 -1.6,-8.5 -0.4,-8.5 0.9,0 3.7,4.5 5.1,8.3 1,2.4 0.8,2.7 -1.3,2.7 -1.5,0 -2.7,-0.9 -3.4,-2.5 z"
       id="path188-8-7" /><path
       d="m 633.8,507.5 c 3.5,-3.9 8.2,-12.5 8.2,-14.9 0,-1.2 -0.7,-1.4 -3,-0.9 -2.5,0.5 -3,0.2 -3,-1.5 0,-1.1 0.7,-2.3 1.6,-2.6 2.5,-1 8.4,-0.7 8.4,0.4 0,0.6 1.1,1 2.5,1 2.2,0 2.5,0.4 2.5,3.5 0,3.3 -0.2,3.5 -3.5,3.5 -2.9,0 -3.5,0.4 -3.5,2.1 0,1.1 -0.5,2.9 -1,3.9 -1,1.8 -0.8,1.9 2.2,1.3 1.8,-0.3 3.5,-1 3.6,-1.5 0.2,-0.4 1.5,-0.8 2.8,-0.8 1.3,0 2.4,-0.4 2.4,-1 0,-0.5 -0.4,-1 -1,-1 -0.5,0 -1,-1.6 -1,-3.5 0,-3.4 0.1,-3.5 4,-3.5 3.3,0 4,0.3 4,2 0,1.1 0.7,2 1.5,2 1,0 1.5,-1 1.5,-3 0,-1.6 0.5,-3 1,-3 0.6,0 1,-0.6 1,-1.4 0,-1.7 2.2,-2.6 6.1,-2.6 h 2.9 v 7.5 c 0,6.9 -0.2,7.5 -2.1,7.5 -1.6,0 -2,-0.6 -1.9,-2.7 0.1,-1.6 0.2,-4.3 0.1,-6.1 l -0.1,-3.4 -3.3,4.4 c -5.9,7.7 -18.1,14.1 -33.1,17.3 l -2.9,0.6 z"
       id="path189-2-6" /><path
       d="m 668.3,505.5 c 0.6,-1.9 1.6,-3.5 2.4,-3.5 2,0 1.6,4.8 -0.6,6 -2.9,1.5 -3,1.3 -1.8,-2.5 z"
       id="path190-2-2" /><path
       d="m 676,498.7 c 0,-1.9 0.3,-3.7 0.8,-3.9 1.7,-0.7 5.4,-10.6 6,-15.7 0.5,-5.1 0.4,-5.4 -1.4,-4.6 -6,2.4 -11.6,3.5 -18.6,3.5 -4.5,0 -7.8,0.4 -7.8,1 0,0.6 -2.6,1 -5.9,1 h -5.9 l -0.7,-6 c -0.6,-5.2 -1,-6 -2.8,-6 -4.1,-0.1 -10.7,-3.7 -10.7,-6 0,-1.1 -0.7,-2 -1.5,-2 -0.8,0 -1.5,0.6 -1.5,1.3 0,1.9 2.8,4.2 7.3,6 3,1.3 3.7,2.1 3.7,4.4 0,5.5 -1.3,10.3 -2.6,10.3 -0.9,0 -1.4,1.2 -1.4,3.5 0,2.4 -0.5,3.5 -1.5,3.5 -0.8,0 -1.5,0.7 -1.5,1.6 0,1.5 -0.9,1.6 -6.4,1 -3.5,-0.3 -7.8,-1.1 -9.6,-1.7 l -3.1,-1.1 7.8,-5 c 4.3,-2.8 9,-6.1 10.5,-7.3 l 2.7,-2.3 -2.9,-0.5 c -5.8,-1.2 -13.7,-15 -15.5,-27.2 -0.7,-4.1 -0.5,-4.5 1.3,-4.5 1.7,0 2.1,0.9 2.7,6 0.4,3.3 1,6 1.4,6 0.4,0 1.2,1.2 1.9,2.8 1,2.4 1.1,2.3 0.5,-1.8 -0.3,-2.5 -0.9,-4.6 -1.4,-4.8 -0.5,-0.2 -0.9,-1.9 -0.9,-3.8 0,-5 2.2,-4.3 4.2,1.4 2.4,6.6 6.9,11.6 13.3,14.8 l 5.5,2.7 11,-1.3 c 10.7,-1.3 11.1,-1.3 21.2,1.3 5.9,1.6 10.8,3.5 11.6,4.4 3.7,5.1 -1.7,25.8 -8.2,31.3 -1.4,1.1 -1.6,0.8 -1.6,-2.3 z"
       id="path191-6-8" /><path
       d="m 701.6,495.8 c 1.2,-3.4 4.4,-17.4 4.4,-19.4 0,-0.2 0.7,-0.4 1.6,-0.4 1.4,0 1.6,0.9 1.2,5.8 -0.3,3.1 -1.4,8.5 -2.3,12 -1.5,5.3 -2.1,6.2 -4.1,6.2 -2.3,0 -2.3,0 -0.8,-4.2 z"
       id="path192-4-3" /><path
       d="m 744,498.1 c 0,-1 -0.9,-2.1 -2,-2.4 -1.6,-0.4 -2,-1.4 -2,-4.3 0,-3.5 0.1,-3.6 1.8,-2.1 1,1 3.3,3.7 5.1,6.2 l 3.2,4.5 h -3 c -2.4,0 -3.1,-0.4 -3.1,-1.9 z"
       id="path193-0-8" /><path
       d="m 727,480.5 c 0,-0.9 -0.9,-1.5 -2.1,-1.5 -1.2,0 -2.3,-0.8 -2.6,-2 -0.3,-1.3 -1.4,-2 -2.9,-2 -1.3,0 -2.4,-0.4 -2.4,-0.8 0,-0.4 -1.6,-1.4 -3.5,-2.1 -2.7,-0.9 -3.5,-1.8 -3.5,-3.7 0,-2.4 0.1,-2.4 3.3,-1.1 4.2,1.8 13.3,7.7 17.7,11.6 l 3.5,3 -3.7,0.1 c -2.7,0 -3.8,-0.4 -3.8,-1.5 z"
       id="path194-0-4" /><path
       d="m 705.7,466.8 c -0.7,-2.7 -0.5,-3 1.7,-2.2 1.9,0.7 2.2,4.4 0.2,4.4 -0.7,0 -1.6,-1 -1.9,-2.2 z"
       id="path195-0-9" /><path
       d="m 175,453.1 c 0,-0.6 -1.1,-1.1 -2.5,-1.1 -2.2,0 -2.5,-0.4 -2.5,-3.5 0,-3.3 0.2,-3.5 3.4,-3.5 3.5,0 4.6,-1.5 4.6,-6.7 0,-2.8 1.6,-3 3,-0.4 1.1,2.2 0.4,7.2 -1.6,11.2 -1.5,3.1 -4.4,5.7 -4.4,4 z"
       id="path196-8-6" /><path
       d="m 617,439.4 c 0,-1.8 -0.6,-2.8 -2.1,-3.1 -1.9,-0.5 -2,-1.1 -1.5,-4.7 0.4,-2.3 1.4,-6.5 2.3,-9.5 1.7,-5.3 1.7,-5.4 2.5,-2.5 0.4,1.6 0.8,4.5 0.7,6.4 -0.1,1.9 0.4,5.9 1,8.9 1.4,7 1.4,7.1 -0.9,7.1 -1.5,0 -2,-0.7 -2,-2.6 z"
       id="path197-1-3" /><path
       d="m 594.1,413.7 c -0.7,-4.5 -2.3,-10.8 -3.6,-14.1 -1.3,-3.2 -2.2,-6.3 -1.9,-7 0.2,-0.6 -2.6,-2.7 -6.2,-4.6 -10.8,-5.7 -26.5,-21.5 -32.2,-32.5 -1.8,-3.5 -2.1,-3.7 -2.1,-1.5 0,1.4 0.6,5.9 1.4,10 0.7,4.1 1.2,7.6 1,7.8 -0.2,0.2 -2.2,-2.9 -4.6,-6.8 -8.4,-14.3 -11.7,-33.1 -8.5,-49 2.1,-10.1 3.3,-12.2 9.7,-17.5 2.6,-2.2 5.4,-5 6,-6.2 1.8,-3.3 2.9,-2.8 2.9,1.2 0,2.2 -0.5,3.5 -1.3,3.5 -0.7,0 -1.7,1 -2.2,2.3 -0.6,1.2 -2,2.3 -3.2,2.5 -2.1,0.3 -2.3,0.9 -2.3,5.5 v 5.2 l 4.5,-0.3 4.5,-0.4 v 3.6 c 0,2.5 0.4,3.6 1.5,3.6 1,0 1.5,1.1 1.5,3.5 0,2.4 -0.5,3.5 -1.5,3.5 -0.8,0 -1.5,0.3 -1.5,0.8 0.1,2.3 4.2,16.8 5.2,18.1 4.8,6.4 13.8,11.7 24.3,14.4 10.9,2.8 16,3.6 16.3,2.6 0.2,-0.5 1.1,-0.9 2,-1 1.8,0 1.8,0 -9,-4.7 -5.4,-2.3 -5.8,-2.7 -5.8,-5.8 0,-2.4 0.5,-3.4 1.5,-3.4 0.8,0 1.5,-0.9 1.5,-2 0,-1.7 0.7,-2 4,-2 3.6,0 4,0.3 4,2.5 0,1.8 0.6,2.6 2.3,2.9 10.3,1.9 19.4,2.9 26,2.7 l 7.7,-0.2 v 3.5 c 0,3.5 0.1,3.5 5,4.2 4.4,0.6 5,0.9 5,3 0,2 0.5,2.4 2.9,2.4 1.6,0 3.1,0.5 3.3,1 0.2,0.6 3.9,1.7 8.3,2.4 15.3,2.8 14.5,2.5 14.5,6.2 0,3.1 -0.3,3.4 -2.7,3.4 -1.6,-0.1 -5.3,-0.7 -8.3,-1.5 l -5.5,-1.3 6.5,-0.2 6.5,-0.2 -5.5,-1.4 c -3,-0.8 -11.3,-2.1 -18.5,-3 -7.1,-0.9 -13.7,-1.9 -14.5,-2.2 -0.9,-0.3 0.8,-1.2 4,-2.3 6.1,-2 4.1,-2.4 -4.1,-0.9 -6,1.1 -18.6,6.9 -21.2,9.8 -1.6,1.7 -1.4,1.8 4.9,1.4 l 6.5,-0.4 -5.7,5.3 c -5.7,5.5 -12.7,14.5 -16,20.9 -1,1.9 -2.7,7.4 -3.9,12.2 l -2.1,8.7 z"
       id="path198-7-2"
       sodipodi:nodetypes="cccscscsccccssccscccssssccccccssssscccscssccscccccccccccccccccc" /><path
       d="m 126.6,407.3 c 2.1,-9.9 7.7,-19.9 14.2,-25.7 2.2,-1.9 2.2,-1.9 2.2,1 0,5.3 -1.1,7.4 -3.6,7.4 -1.7,0 -2.4,0.6 -2.4,2 0,1.1 -0.5,2 -1.1,2 -0.5,0 -0.9,0.8 -0.7,1.9 0.2,1.4 -7.8,14.1 -8.9,14.1 -0.2,0 -0.1,-1.2 0.3,-2.7 z"
       id="path199-6-3" /><path
       d="m 645.5,403.6 c -5.4,-1.3 -11,-4 -12,-5.6 -0.5,-0.7 0.3,-0.8 2.2,-0.3 4.4,1.2 23.7,0.8 25.9,-0.6 1.7,-1.1 1.7,-1.2 -0.7,-0.7 -2.4,0.5 -20.6,-1.7 -21.5,-2.6 -0.2,-0.3 -0.1,-2 0.2,-3.8 l 0.7,-3.2 5.5,0.4 c 3.1,0.3 5.8,1 6,1.6 0.2,0.7 1.9,1.2 3.8,1.2 2.4,0 3.4,0.5 3.4,1.5 0,1.6 1.2,1.8 4.8,0.9 1.2,-0.4 2.2,-1.3 2.2,-2 0,-0.8 -1,-1.5 -2.2,-1.6 -1.3,-0.1 0.4,-0.4 3.7,-0.7 l 6,-0.6 -6,-1.3 c -3.3,-0.7 -7.2,-1.5 -8.7,-1.8 -4.4,-0.9 -3.5,-3.4 1.2,-3.4 2.9,0 4,-0.4 4,-1.5 0,-1.1 1.1,-1.5 4,-1.5 3.6,0 4,0.3 4,2.4 0,1.7 0.7,2.6 2.5,3 2.1,0.5 2.5,1.2 2.5,4.1 0,2.4 -0.5,3.5 -1.5,3.5 -0.9,0 -1.5,0.9 -1.5,2.5 0,1.8 -0.5,2.5 -2,2.5 -1.1,0 -2,0.6 -2,1.4 0,1.6 -3,2.6 -7.7,2.6 -1.8,0 -3.3,0.5 -3.3,1 0,0.6 -1.1,1 -2.5,1 -1.6,0 -2.5,0.6 -2.5,1.5 0,1.8 -1.7,1.8 -8.5,0.1 z m 5.3,-12.3 c -1,-0.2 -2.6,-0.2 -3.5,0 -1,0.3 -0.2,0.5 1.7,0.5 1.9,0 2.7,-0.2 1.8,-0.5 z"
       id="path200-7-6" /><path
       d="m 663,403 c 0,-1.6 0.7,-2 3.5,-2 4,0 4.9,2.4 1.3,3.4 -3.8,1 -4.8,0.7 -4.8,-1.4 z"
       id="path201-1-9" /><path
       d="m 672,401.1 c 0,-1.6 1,-2.1 4.8,-2.7 2.6,-0.4 5,-1.1 5.3,-1.6 0.4,-0.6 2.7,-1.3 5.3,-1.5 8.7,-1 4.3,2.7 -7.3,6.1 -7,2.1 -8.1,2 -8.1,-0.3 z"
       id="path202-4-5" /><path
       d="m 711.1,400.3 c -2.1,-4.6 -2.5,-11.5 -0.8,-15.4 1.5,-3.6 14.1,-17.9 15.8,-17.9 0.5,0 0.9,3.8 0.9,8.5 0,10 -3,18.8 -8.2,24.2 -3.9,4 -6.1,4.2 -7.7,0.6 z"
       id="path203-8-4" /><path
       d="m 693,393.1 c 0,-2.9 0.3,-3.1 3.6,-3.1 3.9,0 3.8,0.9 -0.6,4 l -3,2.1 z"
       id="path204-1-2" /><path
       d="m 631.5,390.5 c -7.6,-4.1 -7.8,-4.8 -1.3,-4.3 3.2,0.3 6.1,0.7 6.4,1 0.3,0.4 0.4,1.8 0.2,3.3 l -0.3,2.6 z"
       id="path205-8-1" /><path
       d="m 700,385.3 c 0,-1.6 -0.3,-4.5 -0.6,-6.5 -0.6,-3.2 -1.1,-3.8 -3,-3.8 -1.3,0 -2.4,-0.4 -2.4,-1 0,-0.5 -0.6,-1 -1.4,-1 -0.8,0 -4.4,-1.3 -8,-3 -7.6,-3.4 -8.6,-5 -8.6,-14.1 0,-4.6 0.3,-5.9 1.5,-5.9 0.8,0 1.5,-0.9 1.5,-2 0,-2.7 3.8,-2.7 10.8,0 2.9,1.1 6.8,2 8.7,2 2.9,0 3.5,0.4 3.5,2.1 0,2 -0.3,2.1 -5.5,1.5 -3.1,-0.3 -7.9,-1.5 -10.7,-2.6 -2.9,-1.1 -5.4,-1.8 -5.6,-1.6 -1.1,1.1 -0.5,11.6 0.8,13.1 0.8,0.9 5,3.4 9.5,5.4 11.7,5.4 16,11.7 12.5,18.2 -1.5,2.7 -3,2.3 -3,-0.8 z"
       id="path206-5-7" /><path
       d="m 648,383.3 c -8.8,-1.3 -21,-4.6 -21,-5.6 0,-0.7 0.7,-2.3 1.6,-3.5 1.6,-2.3 3.4,-2.4 15.2,-0.6 5.2,0.8 4.1,3.4 -1.5,3.5 l -4.8,0.1 5,1.3 c 2.8,0.7 6.5,1.4 8.3,1.4 2.5,0.1 3.2,0.5 3.2,2.1 0,2 -0.7,2.2 -6,1.3 z"
       id="path207-3-1" /><path
       d="m 653,359.5 c 0,-3.3 0.2,-3.5 3.5,-3.5 3.3,0 3.5,0.2 3.5,3.5 0,3.3 -0.2,3.5 -3.5,3.5 -3.3,0 -3.5,-0.2 -3.5,-3.5 z"
       id="path208-1-9" /><path
       d="m 705,351 c 0,-2.8 0.3,-3 3.5,-3 1.9,0 3.5,0.5 3.5,1 0,0.6 2,1 4.5,1 4.2,0 4.5,-0.2 4.5,-2.7 l 0.1,-2.8 3.4,3.9 c 1.9,2.2 3.5,4.3 3.5,4.8 0,0.4 -5.2,0.8 -11.5,0.8 H 705 Z"
       id="path209-9-4" /><path
       d="m 622,343.5 c 0,-3.3 0.2,-3.5 3.5,-3.5 3.3,0 3.5,0.2 3.5,3.5 0,3.3 -0.2,3.5 -3.5,3.5 -3.3,0 -3.5,-0.2 -3.5,-3.5 z"
       id="path210-3-7" /><path
       d="m 658,344 c -0.6,-1.1 -1.7,-2 -2.5,-2 -0.8,0 -1.5,-0.4 -1.5,-1 0,-0.5 -0.7,-1 -1.5,-1 -0.8,0 -1.5,-0.4 -1.5,-1 0,-0.5 -0.6,-1 -1.4,-1 -0.8,0 -2.1,-0.6 -2.8,-1.3 -2.2,-2.1 -12.2,-4.7 -24,-6.2 -20.4,-2.6 -24.8,-3.7 -24.8,-6.6 0,-1.2 -0.7,-1.9 -2,-1.9 -1.6,0 -2,-0.7 -2,-3.5 0,-4.3 1.4,-4.5 3.5,-0.4 2.4,4.5 7.9,6.4 25.8,8.8 17.8,2.4 23.9,4.4 32.1,10.1 3.3,2.3 5.3,3.2 4.7,2.2 -1.5,-2.8 -14.3,-14.6 -18.6,-17.2 -5.4,-3.2 -5.3,-3 -3.1,-4.6 2.7,-1.9 4.6,-1.8 4.6,0.4 0,1.4 0.2,1.5 1,0.2 0.7,-1.1 2.6,-1.4 7.7,-1.3 5.3,0.1 6.4,-0.1 4.8,-0.9 -4.3,-2.3 -10.5,-9.5 -10.5,-12.3 0,-0.3 2,-0.5 4.5,-0.5 4.3,0 4.5,0.1 4.5,3 0,3.2 2.7,6.6 5.7,7.2 1.3,0.2 1.9,1.4 2.1,4.2 l 0.3,3.9 -6,-0.6 c -5.6,-0.6 -6.1,-0.5 -6.1,1.2 0,1.1 -0.6,2.2 -1.2,2.4 -0.7,0.3 -0.1,0.6 1.3,0.6 3.1,0.1 7.9,4.9 7.9,7.8 0,1.4 0.8,2.4 2.2,2.9 3.2,1 4.7,3.3 4.8,7.2 0,3 -0.2,3.2 -3.5,3.2 -2.4,0 -3.7,-0.6 -4.5,-2 z"
       id="path211-9-6" /><path
       d="m 693,340.5 c 0,-3.3 0.2,-3.5 3.5,-3.5 3.3,0 3.5,0.2 3.5,3.5 0,3.3 -0.2,3.5 -3.5,3.5 -3.3,0 -3.5,-0.2 -3.5,-3.5 z"
       id="path212-1-6" /><path
       d="m 712.4,342.6 c -0.3,-0.8 -0.4,-2.4 -0.2,-3.6 0.3,-2 0.5,-2 4.3,1.4 l 4,3.5 -3.8,0.1 c -2.4,0 -4,-0.5 -4.3,-1.4 z"
       id="path213-0-6" /><path
       d="m 599,338.5 c 0,-3.3 0.2,-3.5 3.5,-3.5 3.3,0 3.5,0.2 3.5,3.5 0,3.3 -0.2,3.5 -3.5,3.5 -3.3,0 -3.5,-0.2 -3.5,-3.5 z"
       id="path214-4-7" /><path
       d="m 704,333.9 v -3 l 3,2.1 c 4.4,3.1 4.5,4 0.6,4 -3.3,0 -3.6,-0.2 -3.6,-3.1 z"
       id="path215-9-3" /><path
       d="m 681,328.5 c 0,-2.4 0.5,-3.5 1.5,-3.5 0.8,0 1.5,-0.7 1.5,-1.5 0,-0.9 -0.9,-1.5 -2.5,-1.5 -1.4,0 -2.5,-0.4 -2.5,-1 0,-0.5 -0.7,-0.7 -1.5,-0.4 -0.8,0.4 -1.5,1.7 -1.5,3 0,2 -0.5,2.4 -2.9,2.4 -4.9,0 -6.1,-0.9 -6.1,-4.6 0,-2.2 0.5,-3.4 1.4,-3.4 0.8,0 1.6,-1.5 2,-3.7 0.8,-5.4 0.8,-6.3 -0.7,-6.3 -1.8,0 -4.7,-6.3 -4.7,-10 0,-5.1 1.9,-3.4 6.1,5.4 2.2,4.7 5.3,9.8 6.9,11.3 1.6,1.6 7.7,5.5 13.5,8.8 5.8,3.2 10.5,6.2 10.5,6.7 0,0.9 -5.1,1.1 -7.4,0.2 -0.9,-0.3 -1.6,-1.2 -1.6,-2 0,-0.8 -0.9,-1.4 -2,-1.4 -1.5,0 -2,0.7 -2,2.5 0,2.3 -0.4,2.5 -4,2.5 -3.9,0 -4,-0.1 -4,-3.5 z"
       id="path216-0-4" /><path
       d="m 587.8,311.3 c -1,-0.2 -1.8,-1.4 -1.8,-2.5 0,-1.8 0.4,-2 3.2,-1.4 3.3,0.6 5.8,2.3 5.8,3.7 0,0.9 -4.1,1 -7.2,0.2 z"
       id="path217-0-7" /><path
       d="m 571,306.5 c 0,-3.1 0.3,-3.5 2.5,-3.5 1.4,0 2.5,-0.6 2.5,-1.3 0,-1.6 4.1,-3.7 7,-3.7 1.1,0 2,-0.4 2,-0.9 0,-1 7.7,-3.1 11.4,-3.1 4.9,0 2.7,2.6 -3.5,4.4 -3.3,0.9 -8.7,3 -12,4.6 -5.8,3 -7.8,4.7 -3.9,3.5 2.9,-0.9 8,0.4 8,2.1 0,1.1 -1.6,1.4 -7,1.4 h -7 z"
       id="path218-0-0" /><path
       d="m 634,306.5 c -2.5,-1.3 -6.1,-3.7 -8,-5.4 l -3.5,-3 3.8,-0.1 c 2.6,0 3.7,0.4 3.7,1.5 0,0.8 0.7,1.5 1.6,1.5 1.4,0 1.5,-1 0.9,-7.5 l -0.7,-7.5 h 3.5 c 2.9,0 3.8,0.5 4.9,2.7 0.7,1.5 2.6,3.4 4.1,4.1 2.2,1.1 2.7,2 2.7,4.8 0,3.6 -2.5,4.9 -3.3,1.7 -0.5,-2.1 -0.7,-1.5 -2.6,5.5 -0.7,2.3 -1.5,4.2 -1.9,4.2 -0.4,-0.1 -2.7,-1.2 -5.2,-2.5 z"
       id="path219-3-7" /><path
       d="m 680.7,306.6 c -1.5,-0.7 -3.4,-2.2 -4.3,-3.4 -1.4,-2 -1.4,-2.2 0.4,-2.2 1.7,0 1.9,-0.5 1.4,-4.5 -0.3,-3 -0.1,-4.5 0.7,-4.5 0.6,0 1.1,-1 1.1,-2.2 0,-2.1 0,-2.1 2.6,0.3 3.9,3.6 5.4,7.2 5.4,12.9 0,4.5 -0.2,5 -2.2,4.9 -1.3,0 -3.5,-0.6 -5.1,-1.3 z"
       id="path220-2-0" /><path
       d="m 610.8,298.2 c -6.5,-1.6 -8.1,-4.2 -2.5,-4.2 3.2,0 3.2,-0.1 2.9,-4 -0.4,-4 -0.4,-4 3.2,-4 2.9,0 3.6,0.4 3.6,2 0,1.3 0.7,2 2,2 1.7,0 2,0.7 2,3.8 l -0.1,3.7 -3.2,-3.8 c -4,-4.7 -5,-4.7 -3.1,-0.1 2.4,5.7 1.8,6.2 -4.8,4.6 z"
       id="path221-8-6" /><path
       d="m 670,296.5 -3.4,-3.5 h 3.7 c 3.6,0 3.7,0.1 3.7,3.5 0,1.9 -0.1,3.5 -0.3,3.5 -0.2,0 -1.8,-1.6 -3.7,-3.5 z"
       id="path222-2-3" /><path
       d="m 476.8,288 c -6.4,-1.1 -14.3,-5.6 -18.8,-10.8 -4.5,-5.1 -6.7,-10.2 -4.4,-10.2 1,0 1.4,-1.3 1.4,-4.7 0,-5.6 1.7,-12.3 3,-12.3 0.6,0 1,-0.9 1,-2 0,-1.6 0.7,-2 3.1,-2 h 3 l -1.9,2.8 c -1.1,1.5 -2.3,3.8 -2.7,5.1 l -0.7,2.3 3.2,-2.3 c 2.7,-2 4.3,-2.4 10.3,-2.3 4,0 8.5,0.6 10.1,1.2 l 2.8,1.2 -3.9,2.9 c -3.9,2.8 -7.3,8.9 -7.3,12.9 0,4.1 2.3,9.3 6,13.4 3.7,4.2 4.2,6 1.6,5.7 -0.6,-0.1 -3.2,-0.5 -5.8,-0.9 z"
       id="path223-4-3" /><path
       d="m 555.2,288.3 c 3.5,-7.4 4.8,-8.1 4.8,-2.8 0,3.1 -0.3,3.5 -2.6,3.5 -1.4,0 -2.4,-0.3 -2.2,-0.7 z"
       id="path224-8-5" /><path
       d="m 672,285 c 0,-1.5 -0.7,-2 -2.5,-2 -1.6,0 -2.5,-0.6 -2.5,-1.5 0,-0.8 -0.9,-1.5 -2,-1.5 -1.1,0 -2,-0.4 -2,-1 0,-0.5 -0.7,-1 -1.5,-1 -0.8,0 -1.5,-0.4 -1.5,-1 0,-0.5 -0.7,-1 -1.5,-1 -1,0 -1.5,-1 -1.5,-3.1 v -3 l 7.3,5 c 3.9,2.8 9,6.6 11.2,8.6 l 4,3.4 -3.7,0.1 c -3.1,0 -3.8,-0.3 -3.8,-2 z"
       id="path225-3-0" /><path
       d="m 649.8,282 c -0.9,-2.1 -2,-3 -3.5,-3 -1.3,0 -2.3,-0.4 -2.3,-1 0,-0.5 -0.7,-1 -1.5,-1 -0.8,0 -1.5,-0.4 -1.5,-1 0,-0.5 -0.7,-1 -1.5,-1 -0.8,0 -1.5,-0.7 -1.5,-1.5 0,-0.8 -0.9,-1.5 -1.9,-1.5 -3.5,0 -5.1,-1.2 -5.1,-3.6 0,-1.3 0.4,-2.4 0.8,-2.4 1.5,0 15.7,9.1 19.2,12.3 4.2,3.9 2.7,1.7 -6.4,-9.1 -3.8,-4.5 -6.6,-8.5 -6.4,-8.8 0.3,-0.3 3.1,0.7 6.2,2.2 5.4,2.6 7.2,4.4 4.1,4.4 -0.8,0 -1.5,0.7 -1.5,1.5 0,0.9 0.9,1.5 2.5,1.5 2,0 2.5,0.5 2.5,2.5 0,1.8 0.5,2.5 2,2.5 2.4,0 4,2.8 4,6.9 0,2.9 -0.3,3.1 -3.4,3.1 -2.9,0 -3.7,-0.5 -4.8,-3 z"
       id="path226-5-2" /><path
       d="m 545.5,282 c 1.7,-1.3 6.3,-5.5 10.3,-9.4 l 7.2,-7 v 3.5 c 0,2.5 -0.7,4.2 -2.4,5.6 -1.6,1.4 -2.3,2.9 -2,4 0.6,2.1 -2.9,3.6 -11.6,4.9 l -4.5,0.7 z"
       id="path227-0-6" /><path
       d="m 582.3,274.5 c -0.7,-0.8 -1.3,-2.8 -1.3,-4.5 0,-2.7 0.3,-3 3.1,-3 3.9,0 5.9,2 5.9,5.9 0,2.8 -0.3,3.1 -3.2,3.1 -1.8,-0.1 -3.9,-0.7 -4.5,-1.5 z"
       id="path228-0-6" /><path
       d="m 450.4,259.5 c -2,-10.9 7.1,-26.8 18,-31.5 10.1,-4.3 22.9,-3.4 35.1,2.5 6.6,3.2 18.5,11.8 18.5,13.4 0,0.4 -1.8,1.7 -3.9,2.9 l -3.9,2.2 -6.9,-3.4 c -10.3,-5.2 -17.4,-6.9 -25.9,-6.4 -5.8,0.4 -8.2,1.1 -11.4,3.2 l -4,2.6 v -3 c 0,-2.8 0.3,-3 3.5,-3 2.3,0 3.5,-0.5 3.5,-1.4 0,-2.1 10.1,-3 18.3,-1.6 7,1.1 16.6,4.3 17.6,5.8 0.3,0.5 1.8,1.2 3.4,1.6 2.3,0.5 2.7,0.3 2.7,-1.4 0,-1.5 -0.7,-2 -2.5,-2 -1.4,0 -2.5,-0.4 -2.5,-1 0,-0.5 -0.6,-1 -1.4,-1 -0.8,0 -1.6,-0.4 -1.8,-0.8 -0.1,-0.4 -3.7,-2.3 -7.8,-4.2 -6.9,-3.2 -8.2,-3.5 -17.1,-3.5 -7.7,0.1 -10,0.4 -11.3,1.8 -1,0.9 -2.5,1.7 -3.4,1.7 -1,0 -2.2,1 -2.7,2.3 -0.6,1.2 -2,2.3 -3.2,2.5 -1.7,0.3 -2.3,1 -2.3,2.8 0,1.4 -0.6,2.4 -1.4,2.4 -1.5,0 -2.2,3.3 -3.2,13.8 -0.7,7 -2.9,8.5 -4,2.7 z"
       id="path229-6-8" /><path
       d="m 613,261.7 c -1.4,-0.6 -2.7,-1.4 -3,-1.7 -0.3,-0.3 -4.4,-1.5 -9.1,-2.8 -9,-2.3 -14.3,-2.7 -22.3,-1.6 -4,0.6 -4.6,1 -4.6,3 0,2 -0.5,2.4 -3,2.4 -2.6,0 -2.9,-0.2 -1.9,-1.7 5.1,-7.7 13.5,-9.8 27.9,-6.9 9.4,2 24.2,7.5 24.8,9.4 0.5,1.5 -5.3,1.5 -8.8,-0.1 z"
       id="path230-7-7" /></g><g
     fill="#e0a632"
     id="g589-9-2"
     transform="translate(-1506.4186,2292.0177)"
     style="display:inline"
     inkscape:label="yellow"><path
       d="m 601.5,648.2 c -3,-1 -7.5,-4.3 -7.5,-5.5 0,-0.6 1,-0.1 2.3,1.1 3.3,3.1 7.1,4.2 14.3,4.2 6.2,0 6.4,-0.1 5.4,-2.1 -2,-3.6 -4,-10 -3,-9.4 0.6,0.3 1,1.2 1,1.9 0,0.7 1.1,3.4 2.4,5.9 l 2.3,4.7 -7.6,-0.1 c -4.2,-0.1 -8.5,-0.4 -9.6,-0.7 z"
       id="path522-2-8" /><path
       d="m 721.4,643.3 c 0.7,-0.8 22.6,-0.6 23.4,0.1 0.3,0.4 -4.9,0.6 -11.6,0.5 -6.8,0 -12.1,-0.3 -11.8,-0.6 z"
       id="path523-8-3" /><path
       d="m 699.1,641.4 c -6.3,-0.8 -11.7,-1.7 -12,-2 -0.3,-0.4 2.1,-0.3 5.4,0.1 3.3,0.4 11,1.3 17,2 6.5,0.7 9,1.3 6,1.3 -2.7,0 -10.1,-0.6 -16.4,-1.4 z"
       id="path524-9-1" /><path
       d="m 759.5,641.5 c 5.5,-0.7 12.6,-1.8 15.8,-2.5 3.3,-0.6 6.1,-1 6.3,-0.7 0.8,0.8 -17.1,3.9 -24.6,4.2 -7.3,0.4 -7.2,0.4 2.5,-1 z"
       id="path525-2-7" /><path
       d="m 572.1,640.2 c -5.4,-2.7 -7.3,-7.3 -6.8,-16.3 0.3,-6.5 1,-9 4.7,-16.8 2.4,-5 5,-9.6 5.7,-10.2 1.5,-1.3 1.7,-2.9 0.4,-2.9 -1.9,0 -11.2,9.3 -14.9,15 -2.2,3.3 -5.2,9.2 -6.8,13.2 -1.5,4 -2.9,7.5 -3,7.7 -0.2,0.2 -1.9,-0.7 -3.9,-1.9 -5.1,-3.1 -7.8,-9 -7.3,-15.4 0.5,-6 6.6,-18.8 11.6,-24.7 3.7,-4.3 3.3,-4.9 -1.3,-2.1 -5.8,3.6 -14,12 -18.4,18.9 l -4.5,7 -2.1,-2.6 c -5,-6 -5.8,-10.7 -2.6,-16.9 4.4,-8.6 12.3,-16.1 28.4,-26.9 9,-6.1 10.1,-6.5 14,-6.1 2.3,0.3 7.1,1.9 10.7,3.5 9.3,4.3 45.5,19.8 58.5,25 10.6,4.3 15.6,6.7 22,10.8 3.2,2.1 3.2,2 -2.3,-5.1 -3.2,-4.2 -3.2,-4.2 -0.9,-4.8 1.2,-0.3 4.5,-0.6 7.3,-0.6 5.4,0 20.8,-3 28.9,-5.6 2.8,-0.9 10.4,-3.9 17,-6.6 24,-10 35.7,-12.8 52.7,-12.8 6.2,0 14.4,0.7 18.2,1.5 3.8,0.8 7.1,1.3 7.3,1.1 0.2,-0.2 -1.6,-2.1 -4.1,-4.3 -9.6,-8.5 -25.4,-13.7 -41.1,-13.7 -12.6,0 -18.4,1.6 -38.4,10.4 -8.6,3.8 -19.4,7.8 -24.1,9 -11.6,2.9 -12,2.9 -12,2 0,-0.4 2.1,-1 4.8,-1.4 7.4,-1 12.7,-3.2 12.4,-5.1 -0.2,-0.8 1.3,-4.8 3.2,-8.8 3.3,-6.9 8.4,-13 15.8,-18.9 l 3.3,-2.7 -4,0.6 c -2.2,0.3 -4.2,0.9 -4.5,1.2 -0.3,0.3 -2,0.7 -3.8,0.9 -1.9,0.2 -5.4,1.2 -7.9,2.3 -2.5,1 -6.2,2.2 -8.3,2.5 -3.7,0.6 -3.8,0.6 -3.5,-2.5 0.1,-1.7 -0.1,-2.8 -0.6,-2.5 -0.5,0.3 -0.6,1 -0.3,1.6 0.5,0.7 0.2,0.8 -0.6,0.3 -0.7,-0.4 -1.5,-0.4 -1.9,0.1 -0.8,1.3 -6.2,3.6 -6.9,3 -0.2,-0.3 0.8,-1.1 2.4,-1.8 1.6,-0.7 5.8,-3.6 9.4,-6.4 21.2,-16.9 32,-36.8 32,-59.1 V 464 l 6.3,3.1 c 13.3,6.7 23.7,15.1 32.5,26.2 5,6.3 11.4,17.9 12.6,23 l 0.7,2.8 -8.6,-0.3 c -4.7,-0.2 -8.5,-0.1 -8.5,0.2 0,0.4 5.7,2.6 12.8,4.9 7,2.4 16.1,6.1 20.2,8.2 20.7,10.7 38.7,29.5 46.8,49.2 3.2,7.5 3.9,10.7 2.5,10.7 -0.5,0 -0.9,-1.4 -1,-3 -0.1,-1.7 -0.7,-3.8 -1.3,-4.8 -0.9,-1.4 -1.1,-1.3 -0.7,1.1 0.2,1.5 0.1,2.9 -0.2,3.2 -0.4,0.2 -0.6,1.6 -0.5,3.2 0.1,3.2 -3.6,7.2 -8.8,9.4 l -3.2,1.3 2.4,0.8 c 2,0.6 1.8,0.7 -0.8,0.3 -1.8,-0.3 -4.9,0.2 -7,0.9 -4.6,1.7 -13.7,4.3 -17.7,5.1 -4.7,0.9 -10.9,2.8 -12,3.6 -0.6,0.5 -2,0.8 -3,0.7 -1.1,-0.1 -5.4,0.4 -9.5,1.1 -9,1.4 -17.7,2 -32.5,2.2 -6,0.2 -9.9,0.4 -8.5,0.7 1.3,0.2 4.2,1.6 6.5,3.2 2.2,1.5 7.4,4.2 11.5,6 6.7,2.9 12.4,6.3 7.8,4.7 -1,-0.3 -9.1,-0.7 -18,-0.7 -17.2,-0.2 -36.5,-2.7 -39.5,-5.1 -0.8,-0.8 -2.1,-1.4 -2.7,-1.4 -2,-0.2 -7.1,-1.8 -8.2,-2.6 -1.1,-0.9 -6.6,0.6 -12.9,3.5 -1.6,0.8 -5.7,1.9 -8.9,2.6 -6.4,1.3 -16.7,0.3 -28.1,-2.7 -3.3,-0.9 -6.7,-1.7 -7.5,-1.8 -1.6,-0.1 -12.4,-4.9 -15,-6.6 -0.8,-0.5 -2.5,-1.3 -3.7,-1.8 -1.2,-0.6 -2.6,-1.8 -3.1,-2.7 -0.8,-1.4 -1.8,-0.6 -6.6,5.2 -6.8,8.2 -9.2,12.6 -10.7,19.4 -1.2,5.6 -2.3,6.1 -7.8,3.2 z m -21.8,-16 c -0.7,-0.7 -1.3,-1.8 -1.3,-2.3 0,-0.5 -0.7,-0.9 -1.5,-0.9 -0.8,0 -1.5,-0.7 -1.5,-1.5 0,-0.9 -0.9,-1.5 -2.2,-1.5 -2.2,-0.1 -2.3,-0.1 -0.4,-1.5 1.1,-0.8 1.8,-1.5 1.5,-1.6 -0.2,0 -1.2,-0.2 -2.1,-0.4 -1.8,-0.3 -2.3,1.1 -1.2,3.9 0.3,0.9 1.1,1.3 1.7,0.9 0.6,-0.4 0.8,0 0.4,1 -0.4,1.1 -0.1,1.7 0.6,1.7 0.7,0 2.2,0.7 3.3,1.6 1.8,1.5 1.8,1.5 -0.6,1 -2.4,-0.5 -2.4,-0.4 0.5,1.9 2.7,2.2 3,2.3 3.6,0.8 0.3,-1 0,-2.4 -0.8,-3.1 z M 545.5,609 c -0.3,-0.5 -1.3,-1 -2.1,-1 -0.8,0 -1.4,0.5 -1.4,1 0,0.6 0.9,1 2.1,1 1.1,0 1.7,-0.4 1.4,-1 z M 529,607 c 0.9,-1.7 0.8,-2 -1.3,-2 -1.2,0 -2.9,-0.6 -3.6,-1.2 -1,-1.1 -1.1,-1 -0.6,0.5 0.4,0.9 1.1,1.7 1.6,1.7 0.5,0 0.9,0.7 0.9,1.5 0,2.1 1.7,1.9 3,-0.5 z m -2.8,-5.9 c -0.9,-1 -2,-1.6 -2.4,-1.4 -0.4,0.2 -0.5,-0.3 -0.2,-1.1 0.3,-0.9 0.1,-1.6 -0.5,-1.6 -0.6,0 -1.1,0.9 -1.1,2 0,1.1 0.6,2 1.4,2 0.8,0 1.7,0.7 2,1.6 0.3,0.8 1,1.3 1.6,0.9 0.5,-0.3 0.2,-1.3 -0.8,-2.4 z m 6.3,-0.9 c -0.2,-0.2 -1.1,0.2 -1.9,1.1 -0.8,0.8 -1.2,1.8 -0.8,2.1 0.3,0.4 1.2,-0.1 1.9,-1 0.7,-1 1.1,-2 0.8,-2.2 z m -3.5,-0.1 c 0,-0.5 0.9,-1.3 2,-1.6 1.1,-0.4 1.8,-1.1 1.5,-1.6 -0.4,-0.5 -1.4,-0.5 -2.5,0.1 -2.3,1.2 -4,1.3 -2.1,0.1 0.9,-0.6 1,-1.1 0.2,-1.5 -0.6,-0.4 -1.1,-0.2 -1.1,0.4 0,0.6 -0.5,0.8 -1.1,0.4 -0.8,-0.5 -0.8,-0.1 0,1.3 0.6,1.1 0.7,2.3 0.4,2.7 -0.3,0.3 0.1,0.6 1,0.6 1,0 1.7,-0.4 1.7,-0.9 z"
       id="path526-5-8" /><path
       d="m 633,641.1 c -1.9,-0.3 2.3,-0.6 9.4,-0.6 7.2,0 11.7,0.3 10,0.6 -3.7,0.8 -14.8,0.8 -19.4,0 z"
       id="path527-6-6" /><path
       d="m 592.4,637.4 c -0.8,-4.5 0.1,-12.6 2.2,-18.7 2.4,-7 2.5,-5.3 0.2,3.3 -1.3,5.3 -1.8,9.2 -1.4,13.3 0.6,6.4 0.1,7.6 -1,2.1 z"
       id="path528-7-8" /><path
       d="m 656.8,639.3 c 0.6,-0.2 1,-0.8 0.7,-1.3 -0.3,-0.4 0.3,-0.7 1.3,-0.6 0.9,0 1.6,-0.5 1.5,-1.1 -0.2,-0.7 0.5,-1.3 1.6,-1.3 1,0 3.5,-1.8 5.4,-3.9 1.9,-2.2 3.8,-3.7 4.1,-3.4 1,1.1 -12.6,12.4 -14.8,12.2 -0.6,0 -0.6,-0.3 0.2,-0.6 z"
       id="path529-2-6" /><path
       d="m 618.3,637.7 c -1.7,-0.7 -3.5,-1.6 -4,-2.1 -0.5,-0.5 0,-0.6 1.2,-0.2 1.1,0.5 3.5,1.2 5.3,1.8 3.2,0.9 4.3,1.9 2,1.7 -0.7,0 -2.7,-0.6 -4.5,-1.2 z"
       id="path530-8-7" /><path
       d="m 676.5,637.6 c -3.3,-0.6 -5.9,-1.4 -5.7,-1.8 0.1,-0.5 0.2,-1.8 0.2,-3 0,-1.8 0.2,-2 0.9,-0.9 0.5,0.8 0.7,2 0.4,2.7 -0.3,0.8 1.8,1.6 6.6,2.4 3.9,0.6 7.1,1.4 7.1,1.6 0,0.6 -2.8,0.3 -9.5,-1 z"
       id="path531-0-4" /><path
       d="m 787,636.6 c 2.5,-0.7 6.7,-1.8 9.5,-2.5 2.7,-0.7 7.1,-2.5 9.8,-4.2 4.8,-3 12.9,-4.1 14.2,-1.9 1.1,1.8 3.5,1 3.5,-1.2 0,-1.2 0.3,-1.9 0.6,-1.5 0.4,0.3 0.4,1.8 0,3.2 -0.6,2.5 -0.7,2.5 -3.6,1 -4.4,-2.3 -8.7,-1.8 -14.5,1.5 -2.9,1.6 -8.8,3.9 -13.1,5 -8.6,2.2 -13.6,2.6 -6.4,0.6 z"
       id="path532-0-0" /><path
       d="m 515.7,636.3 c -3.6,-0.6 -5.5,-3.6 -6.3,-10.3 -0.5,-4.6 -0.3,-5.9 1.3,-7.9 l 2,-2.4 8.1,9.9 c 4.5,5.4 8.2,10.2 8.2,10.7 0,0.7 -8.3,0.7 -13.3,0 z m 9.6,-3.4 c -1,-1.7 -3.4,-4.6 -5.5,-6.4 -2,-1.8 -3.4,-3.6 -3,-3.9 0.3,-0.3 -0.2,-0.6 -1.1,-0.6 -0.9,0 -1.6,-0.5 -1.4,-1.1 0.1,-0.6 -0.6,-1.3 -1.5,-1.4 -1,-0.2 -1.8,-0.1 -1.8,0.2 0,0.9 3.8,5.4 4.5,5.3 0.3,-0.1 1.1,0.1 1.8,0.4 0.6,0.3 -0.5,0.4 -2.5,0.1 -2.3,-0.4 -3.8,-0.2 -3.8,0.5 0,0.5 0.6,1 1.3,1.1 0.9,0 0.9,0.2 -0.1,0.6 -1,0.4 -0.9,0.9 0.4,2.4 1.1,1.2 1.3,1.9 0.5,1.9 -0.9,0 -0.8,0.5 0.2,1.5 1.1,1.1 2.9,1.3 6.4,1 3.6,-0.3 4.2,-0.2 2.3,0.4 -2.3,0.8 -2.2,0.9 1.3,1 l 3.8,0.1 z"
       id="path533-8-0" /><path
       d="m 518.6,631.4 c -1.7,-1.2 -1.7,-1.4 -0.4,-1.4 0.9,0 2,0.5 2.3,1.1 1.1,1.7 0.2,1.8 -1.9,0.3 z"
       id="path534-2-8" /><path
       d="m 514.3,628.6 c 0.2,-0.6 1.5,-1.1 3,-1.1 3.2,-0.1 2.6,1.1 -0.8,1.7 -1.6,0.4 -2.4,0.1 -2.2,-0.6 z"
       id="path535-5-7" /><path
       d="m 257.9,632 -19.6,-0.5 -5.9,-5.2 c -7.6,-6.5 -13,-12.4 -18.9,-20.5 -4.4,-5.9 -12.1,-19.8 -11,-19.8 0.2,0 1.8,2.6 3.4,5.8 4.7,9.2 12.5,19.5 21.4,28.3 4.5,4.5 9.1,8.7 10.2,9.5 1.5,1 7.5,1.3 23.8,1.5 12,0 21.7,0.5 21.7,1 0,0.5 -1.2,0.8 -2.7,0.7 -1.6,-0.1 -11.6,-0.5 -22.4,-0.8 z"
       id="path536-8-6" /><path
       d="m 283.4,616.3 c 0.1,-7.9 0.4,-14.3 0.9,-14.3 0.9,0 0.8,19.3 -0.2,24.5 -0.5,2.6 -0.7,-0.9 -0.7,-10.2 z"
       id="path537-0-4" /><path
       d="m 434.8,619.1 c -7.9,-5.1 -21.1,-17 -23,-20.5 -0.6,-1.2 1.8,0.8 5.3,4.4 9.4,9.5 18.7,17 21.1,17 0.4,0 -1.4,-3.4 -3.9,-7.5 -2.6,-4.1 -4.4,-7.7 -4.2,-7.9 0.2,-0.2 3.2,4 6.6,9.5 3.4,5.4 6,9.9 5.8,9.9 -0.1,0 -3.6,-2.2 -7.7,-4.9 z"
       id="path538-3-6" /><path
       d="m 825.3,616 c 0.1,-5.8 0.3,-7.4 0.8,-5.2 0.4,1.8 0.3,5.6 -0.1,8.5 -0.6,4.6 -0.7,4.3 -0.7,-3.3 z"
       id="path539-2-3" /><path
       d="m 297.6,609.3 c 0.3,-2.6 0.9,-5 1.2,-5.3 0.2,-0.3 0.2,1.4 -0.1,3.8 l -0.5,4.2 h 3.4 c 4.8,0 14.1,-3.3 21.6,-7.7 9,-5.3 26.8,-24 26.8,-28.2 0,-0.6 0.4,-1.1 0.8,-1.1 1.3,0 3.3,-5 2.6,-6.3 -0.4,-0.7 -0.3,-0.9 0.1,-0.4 0.5,0.4 2,-1.6 3.4,-4.5 1.7,-3.5 3.3,-5.4 4.6,-5.5 1.7,-0.2 1.8,-0.2 0.3,0.5 -1,0.4 -3.3,3.9 -5.1,7.7 -5.5,11.4 -10.5,18.5 -19.1,27 -11.8,11.8 -23.1,18 -35.9,19.9 l -4.8,0.7 z"
       id="path540-3-7" /><path
       d="m 261,606.1 c 0,-0.4 -0.9,-1.2 -1.9,-1.7 -4,-1.8 -19.1,-17.7 -24.7,-25.9 -1.5,-2.2 -3.7,-5.3 -4.9,-7 -2.1,-2.8 -5.1,-8.1 -10.9,-18.8 -1.3,-2.5 -2.6,-6.1 -3,-8 -0.4,-2 -1.2,-3.8 -1.9,-4 -0.9,-0.4 -0.9,-0.6 0,-0.6 0.8,-0.1 0.9,-1 0.2,-3.3 -1.4,-4.9 -0.4,-4.5 2.8,1.1 1.6,3 3.5,5.1 4.5,5.1 1,0 1.5,0.5 1.2,1.3 -0.5,1.3 3.2,5.4 4.1,4.6 0.5,-0.5 -2.6,-9.6 -4.6,-13.5 -0.6,-1.2 -1.1,-4.6 -1.1,-7.7 l -0.1,-5.6 -6.9,-1.6 c -3.8,-1 -6.7,-1.9 -6.5,-2.2 0.3,-0.2 3.5,0.4 7.1,1.3 6,1.5 7.3,2.3 12.8,8 3.4,3.5 8.6,8.3 11.7,10.6 3.1,2.3 9.2,6.9 13.6,10.2 10.6,7.9 13.9,11 19.1,17.9 4.4,5.9 4.8,7.9 3,15.7 -0.3,1.4 -0.8,4.6 -1,7.1 -0.4,3.7 -4.9,15.9 -5.9,15.9 -0.1,0 -1.7,0.4 -3.5,0.9 -1.7,0.5 -3.2,0.6 -3.2,0.2 z"
       id="path541-3-8" /><path
       d="m 825.3,602.5 c 0,-2.7 0.2,-3.8 0.4,-2.2 0.2,1.5 0.2,3.7 0,5 -0.2,1.2 -0.4,0 -0.4,-2.8 z"
       id="path542-2-4" /><path
       d="m 299.7,596 c 0.8,-12.9 -2.5,-25.7 -9.3,-36.2 -1.6,-2.4 -1.6,-3 -0.4,-5.4 4.1,-7.6 17.3,-18.7 29.8,-25 3.7,-1.9 7.2,-3.4 7.7,-3.4 0.6,0 -2.6,1.9 -7,4.1 -10.4,5.2 -21.2,13.6 -26.5,20.4 -3.8,5 -5,9.3 -2.3,8.8 0.6,-0.1 1,0.3 1,1 -0.1,0.7 1.3,4.1 3.1,7.7 4.2,8.6 5.8,19.2 4.4,28.5 l -1,7 z"
       id="path543-1-6" /><path
       d="m 427.5,599.9 c -0.9,-1.7 -1.5,-3.3 -1.3,-3.5 0.3,-0.2 1.2,1.2 2.1,3.1 2.1,4.3 1.3,4.7 -0.8,0.4 z"
       id="path544-9-8" /><path
       d="m 283.1,598.9 c 0,-1.5 -0.3,-4.2 -0.6,-6 l -0.5,-3.4 1.1,3.4 c 0.5,1.8 0.8,4.5 0.6,6 l -0.4,2.6 z"
       id="path545-1-2" /><path
       d="m 405.6,587.5 c -2.2,-5.2 -1.9,-5.8 0.5,-1.2 1.1,2.2 1.8,4.1 1.5,4.4 -0.3,0.3 -1.2,-1.2 -2,-3.2 z"
       id="path546-6-3" /><path
       d="m 281,587.7 c 0,-1.1 -0.6,-1.5 -1.7,-1.1 -1.4,0.5 -1.5,0.4 -0.4,-0.4 1.2,-0.9 1.2,-1.7 -0.5,-5.9 -2.8,-7.1 -2.8,-6.9 -1.6,-5.8 1.5,1.5 5.6,13.4 4.8,14.2 -0.3,0.3 -0.6,-0.1 -0.6,-1 z"
       id="path547-3-0" /><path
       d="m 413.5,570.2 c -11.4,-23.9 -11.1,-23.3 -12,-22.4 -0.5,0.4 -0.5,0.1 -0.1,-0.6 0.4,-0.7 0.1,-2.4 -0.8,-3.7 -0.9,-1.3 -1.6,-3.2 -1.6,-4.1 0,-1 -0.3,-1.4 -0.6,-1.1 -0.4,0.3 -0.9,4.4 -1.1,8.9 -0.3,4.6 -0.7,8.5 -0.9,8.7 -0.6,0.7 -0.5,-14.2 0.2,-19.3 l 0.7,-4.7 1.7,4.8 c 1,2.6 5.4,12.2 9.8,21.3 10,20.8 14.3,30.2 13.9,30.7 -0.2,0.1 -4.4,-8.1 -9.2,-18.5 z"
       id="path548-9-4" /><path
       d="m 366.6,576.7 c -2.9,-6.3 -5.9,-15.8 -5.1,-16.5 0.2,-0.2 0.9,1.6 1.5,3.9 1,4.3 4.1,12.2 4.5,11.7 0.1,-0.2 -0.1,-3.3 -0.4,-7 -0.4,-3.8 -0.3,-6.8 0.1,-6.8 0.5,0 0.8,1.9 0.8,4.3 0,2.4 0.5,6.9 1.1,10.1 0.6,3.2 0.9,6 0.7,6.1 -0.2,0.2 -1.6,-2.4 -3.2,-5.8 z"
       id="path549-1-4" /><path
       d="m 198.6,578 c -2.2,-5.6 -1.9,-6.5 0.5,-1.1 1.1,2.4 1.8,4.6 1.5,4.8 -0.2,0.2 -1.1,-1.4 -2,-3.7 z"
       id="path550-7-3" /><path
       d="m 400.1,573.6 c -1.1,-3.6 -2.3,-8.9 -2.5,-11.8 -0.5,-4.2 -0.2,-3.5 1.3,3.2 1.1,4.7 2.4,9.8 3,11.4 0.7,1.6 0.9,3.1 0.7,3.3 -0.3,0.3 -1.4,-2.5 -2.5,-6.1 z"
       id="path551-9-3" /><path
       d="m 644,569 c -2.1,-0.7 -1.8,-0.8 1.5,-0.7 2.9,0.1 3.9,-0.2 3.7,-1.1 -0.1,-0.8 0.1,-1.1 0.6,-0.8 0.9,0.5 7.1,-5.6 11,-10.8 1.2,-1.6 2.2,-2.4 2.2,-1.8 0,1.4 -8.1,11.2 -11.6,14 -3,2.4 -3.6,2.4 -7.4,1.2 z"
       id="path552-6-2" /><path
       d="m 630.2,565.3 c -4,-1.4 -7.1,-2.7 -6.9,-2.9 0.3,-0.3 4.4,0.9 9.3,2.5 4.9,1.6 8,3 6.9,3 -1.1,-0.1 -5.3,-1.2 -9.3,-2.6 z"
       id="path553-6-9" /><path
       d="m 192.7,561.8 c -0.9,-2.9 -1.5,-5.4 -1.3,-5.6 0.2,-0.2 1.2,2 2.1,4.8 0.9,2.8 1.5,5.3 1.3,5.5 -0.2,0.3 -1.2,-1.9 -2.1,-4.7 z"
       id="path554-6-7" /><path
       d="m 666,559.1 c 0,-2.3 0.2,-4.1 0.4,-4.1 0.8,0 1.2,7.1 0.4,7.6 -0.4,0.3 -0.8,-1.3 -0.8,-3.5 z"
       id="path555-4-9" /><path
       d="m 612.1,558.7 c -3,-1.1 -5,-2.2 -4.4,-2.4 0.6,-0.2 3.5,0.7 6.4,2.1 6.6,3 5.4,3.1 -2,0.3 z"
       id="path556-4-7" /><path
       d="m 366.5,538.5 c 0.4,-21.6 2.2,-33.3 7,-46.2 1.4,-3.6 2.4,-6.8 2.1,-7 -0.5,-0.5 -4.1,5.1 -3.8,6 0.1,0.5 -0.1,0.6 -0.6,0.3 -0.9,-0.6 -10.2,10.6 -10.2,12.3 0,0.5 -0.7,1.4 -1.5,2.1 -1,0.8 -1.2,1.7 -0.6,2.4 0.7,0.8 0.4,1.2 -0.9,1.2 -2.4,0 -1.6,-1.5 6.6,-12.6 6.7,-9.1 13.4,-16.2 13.4,-14.2 0,0.7 -1.1,3.8 -2.4,7 -5.2,12.4 -7.5,26 -8.6,50.7 l -0.8,18 z"
       id="path557-4-1" /><path
       d="m 604,555.6 c 0,-0.9 17.1,-10.8 17.7,-10.2 0.3,0.3 -0.3,0.9 -1.3,1.3 -3.2,1.4 -13.4,7.4 -14,8.4 -0.5,0.9 -2.4,1.3 -2.4,0.5 z"
       id="path558-5-3" /><path
       d="m 186.7,544.3 c -3.6,-10.8 -7.7,-25.5 -7.7,-27.7 0,-2.1 2,1.9 2,4.1 0,2.4 7.4,26.7 9.1,30 0.6,1.1 0.9,2.7 0.7,3.4 -0.2,0.7 -2.1,-3.7 -4.1,-9.8 z"
       id="path559-7-3" /><path
       d="m 626.8,545.1 c 3,-4.1 4.7,-8.6 1.9,-5 -0.7,0.9 -2.3,2.1 -3.7,2.8 -1.6,0.8 -0.7,-0.5 2.5,-3.6 2.8,-2.7 5.2,-4.7 5.4,-4.6 0.8,0.5 -5,11.1 -7.1,12.9 -1.5,1.3 -1.2,0.6 1,-2.5 z"
       id="path560-6-9" /><path
       d="m 643,543 c 3.1,-1.5 7.5,-4.9 9.8,-7.4 L 657,531 v 2.9 c 0,3.7 -0.9,6.1 -2.2,6.1 -0.6,0 -0.5,-0.6 0.2,-1.5 2.2,-2.6 0.6,-3.7 -2.3,-1.5 -1.5,1.2 -2.5,2.6 -2.1,3.1 0.3,0.5 0,0.8 -0.8,0.7 -0.7,-0.2 -1.2,0.3 -1,1 0.1,0.8 -0.2,1.1 -0.7,0.7 -0.6,-0.3 -2.8,0.3 -5,1.5 -2.2,1.1 -4.4,2 -4.8,2 -0.4,-0.1 1.7,-1.4 4.7,-3 z"
       id="path561-7-0" /><path
       d="m 343.4,543.7 c 1.6,-1.2 1.5,-1.7 -1.3,-7.7 -1.7,-3.6 -3.1,-7.2 -3,-8 0,-0.8 0.6,0.1 1.4,2.1 0.7,2 2.1,5.1 3.1,7 2.6,5.1 2.7,7.9 0.1,7.9 -1.9,0 -2,-0.1 -0.3,-1.3 z"
       id="path562-7-4" /><path
       d="m 655.1,541.6 c 0.2,-0.2 1.8,-0.6 3.4,-1 2.2,-0.5 2.6,-0.4 1.5,0.4 -1.4,0.9 -5.9,1.5 -4.9,0.6 z"
       id="path563-0-7" /><path
       d="m 347.5,531.3 c 1.5,-6.4 6.1,-18.2 7.7,-19.8 0.5,-0.5 0.2,0.8 -0.7,3 -3.2,7.4 -6.5,17.7 -6.5,20.1 0,1.3 -0.4,2.4 -0.9,2.4 -0.5,0 -0.3,-2.6 0.4,-5.7 z"
       id="path564-2-4" /><path
       d="m 330,525.1 c 0.8,-0.4 3.2,-1.1 5.3,-1.5 3.1,-0.6 3.7,-0.4 3.7,1.1 0,1.3 -0.3,1.5 -0.8,0.5 -0.5,-0.7 -1.5,-1.1 -2.3,-0.8 -3.5,1.1 -7.3,1.6 -5.9,0.7 z"
       id="path565-1-1" /><path
       d="m 183.3,515.3 c 0.9,-0.2 2.5,-0.2 3.5,0 0.9,0.3 0.1,0.5 -1.8,0.5 -1.9,0 -2.7,-0.2 -1.7,-0.5 z"
       id="path566-1-8" /><path
       d="m 209.5,512.3 3.6,-3.7 -2.8,-1.1 c -1.5,-0.5 -4.7,-2.2 -7.1,-3.8 -2.3,-1.5 -6.6,-4.3 -9.5,-6.1 -7.1,-4.6 -13.5,-10.8 -19.8,-19.1 -2.9,-3.8 -5.7,-6.8 -6.3,-6.7 -0.6,0.2 -0.8,0 -0.4,-0.3 0.4,-0.4 0.1,-2 -0.7,-3.6 -0.8,-1.5 -1.5,-3.4 -1.5,-4.1 0.1,-0.7 0.7,0.1 1.4,1.7 2.1,4.7 12.8,18.5 18.4,23.7 5.6,5.2 19.3,14.3 26,17.3 l 4.3,1.8 -3.8,3.9 c -2,2.1 -4.1,3.8 -4.6,3.8 -0.4,0 0.8,-1.7 2.8,-3.7 z"
       id="path567-4-0" /><path
       d="m 177.5,507.9 c -4.3,-2.7 -10.2,-7.3 -13.1,-10.1 -11.3,-10.6 -29.6,-37.1 -32,-46.3 -3.1,-11.4 -0.8,-25.6 5.5,-34.8 3.6,-5.3 12.6,-10.3 20.3,-11.3 4.6,-0.6 4.9,-0.5 8.8,3.3 2.2,2.3 4,4.5 4,5.1 0,0.5 -2.7,2.1 -6,3.6 -3.3,1.4 -8.3,4.6 -11,7.2 -4.8,4.5 -10,13.1 -10,16.6 0,1 -0.6,1.8 -1.2,1.8 -0.7,0 -2.1,2.1 -3.2,4.6 -1.9,4.7 -4.8,5.8 -5.4,1.9 -0.3,-1.7 -0.1,-1.7 0.7,-0.5 0.9,1.3 1.1,1.2 1.1,-0.3 0,-1 -0.7,-2 -1.5,-2.3 -0.8,-0.4 -1.3,-0.9 -1.1,-1.3 0.2,-0.3 0,-2.8 -0.4,-5.6 l -0.7,-5 -0.2,5.8 c 0,3.3 0.6,8.4 1.5,11.4 1.7,5.8 6.7,14.7 8.4,14.9 0.6,0.1 1.5,0.2 2,0.3 0.6,0 1,0.6 1,1.2 0,0.8 -0.5,0.8 -1.5,-0.1 -3,-2.5 -1.4,0.4 5.7,10.4 8.4,11.7 22.2,26 24.4,25.2 0.8,-0.3 1.3,-0.2 1,0.3 -0.6,1 2.6,3.3 9.4,6.8 2.5,1.3 3.8,2.3 2.9,2.3 -0.9,0 -5.1,-2.3 -9.4,-5.1 z"
       id="path568-3-8" /><path
       d="m 635.4,505.8 c 3.3,-3.8 8.3,-14.5 7.2,-15.5 -0.2,-0.3 -1.3,0 -2.4,0.6 -2.6,1.4 -12.1,1.4 -19.8,0 -10.2,-1.8 -10.2,-1.7 -2.7,-6.3 8.7,-5.3 16.2,-10.9 16.3,-11.9 0,-0.4 -1.7,-1.5 -3.7,-2.4 -2.1,-0.8 -4.6,-2.2 -5.5,-3.1 -1,-0.8 -1.8,-1.1 -1.8,-0.5 0,1.5 4.5,5.3 6.3,5.3 0.9,0 1.9,0.5 2.3,1.1 1.3,2.2 -4.1,-0.3 -7.4,-3.5 -10.2,-9.6 -14.1,-33.8 -7.9,-48.8 l 1.4,-3.3 0.7,7.5 c 0.9,8.8 3.2,19.9 5.3,24.7 2.1,5.2 8.9,12 13.9,13.9 3.4,1.3 6.5,1.6 13.2,1.2 4.8,-0.2 7.5,-0.3 5.9,-0.1 -1.5,0.3 -2.5,0.9 -2.2,1.4 0.4,0.5 -0.3,0.9 -1.4,0.9 -1.2,0 -2.1,0.4 -2.1,0.9 0,0.4 -1.5,1.3 -3.2,1.9 -2.8,0.9 -2,1 5.2,0.7 4.7,-0.1 10,-0.6 11.9,-1 l 3.4,-0.8 -2.1,2.1 c -1.1,1.1 -4,2.5 -6.4,3.1 -3.9,0.9 -3.6,1 3.7,0.7 7.8,-0.3 17.5,-3.2 17.5,-5.4 0,-0.5 -3.7,-1.7 -8.2,-2.7 -4.4,-1.1 -7.6,-2.1 -6.9,-2.3 0.7,-0.2 5.3,0.6 10.2,1.9 8.9,2.3 8.9,2.3 10,6.1 1.4,5.3 -0.5,14.8 -4.4,22.1 -2.6,4.9 -13.3,16.5 -14.3,15.5 -0.2,-0.2 0.4,-2.4 1.3,-4.8 1.6,-4.8 2.6,-16 1.3,-16 -0.4,0 -1.9,1.8 -3.4,4.1 -1.5,2.2 -5.5,5.8 -8.8,8 -5.9,3.7 -19.7,8.9 -23.9,8.9 -1.8,0 -1.6,-0.5 1.5,-4.2 z m -4,-26.7 c 1.7,-0.6 1.7,-0.8 0.3,-1.4 -0.8,-0.3 -2.1,0.1 -2.7,0.9 -1.3,1.5 -0.6,1.7 2.4,0.5 z"
       id="path569-7-8" /><path
       d="m 168.6,478.9 c -2.5,-2.5 -1.1,-2.5 2.1,0.1 1.4,1.1 1.9,2 1.2,1.9 -0.8,0 -2.3,-0.9 -3.3,-2 z"
       id="path570-4-1" /><path
       d="m 166.2,457.6 c -0.2,-2.2 -0.4,-7 -0.5,-10.6 -0.2,-5.1 -0.5,-6.4 -1.7,-6.2 -1.1,0.3 -1.1,-0.1 0.3,-1.6 1.8,-1.9 1.4,-3.2 -1,-3.2 -0.8,0 -1.1,0.5 -0.7,1.2 0.5,0.7 0.2,0.9 -0.8,0.6 -3.8,-1.5 -15.7,7.5 -15.9,12 0,1 -0.3,1.2 -0.6,0.5 -0.8,-2 3.4,-7.8 7.4,-10.4 6.1,-3.9 9.3,-5 16.5,-5.6 7.3,-0.6 11.1,0.8 12,4.5 1,3.6 -2.7,12.2 -7.3,16.9 -6.6,6.7 -7.3,6.9 -7.7,1.9 z"
       id="path571-4-7" /><path
       d="m 142.3,448.5 c 0,-2.7 0.2,-3.8 0.4,-2.2 0.2,1.5 0.2,3.7 0,5 -0.2,1.2 -0.4,0 -0.4,-2.8 z"
       id="path572-3-2" /><path
       d="m 595.2,418.5 c -0.3,-4.7 5.5,-21.5 7.4,-21.5 0.2,0 -0.2,1.2 -0.9,2.8 -1.9,3.6 -5.5,15 -6,18.7 l -0.4,3 z"
       id="path573-0-3" /><path
       d="m 592.9,406.3 c -0.9,-3.8 -1.5,-7 -1.3,-7.2 0.5,-0.6 3.6,10.9 3.2,12.4 -0.2,0.8 -1,-1.5 -1.9,-5.2 z"
       id="path574-7-0" /><path
       d="m 127.4,404.3 c 2.2,-8.2 7.6,-17.1 12.9,-21.3 l 2.6,-2.1 -0.6,5.3 c -0.5,4.7 -1.2,6 -6.5,11.7 -3.3,3.5 -6.4,7.4 -7,8.7 -1.9,4.1 -2.7,2.6 -1.4,-2.3 z"
       id="path575-9-6" /><path
       d="m 645.8,403.5 c -3.1,-0.8 -7.1,-2.4 -9,-3.5 l -3.3,-2.1 4,0.7 c 5.9,1.1 14.3,0.8 21.1,-0.7 l 5.9,-1.3 -9.7,-0.7 c -5.3,-0.4 -11.6,-1.3 -14,-1.9 -4.6,-1.3 -16.1,-7 -15.4,-7.7 0.2,-0.3 5.3,0 11.2,0.6 12.8,1.3 38.6,1.4 36.4,0.2 -1.6,-0.9 -11.6,-2.6 -21.5,-3.6 -8,-0.8 -23.3,-4.4 -24.1,-5.6 -0.3,-0.6 0.1,-2 0.9,-3.3 1.4,-2 2,-2.2 7.4,-1.5 3.2,0.4 12.8,0.7 21.3,0.7 14.7,0 15.2,0 10.6,-1.3 -4.7,-1.3 -23.9,-4.3 -30.4,-4.7 -5.1,-0.4 -4.8,-1.5 0.8,-2.9 2.7,-0.7 5,-1.7 5,-2.2 0,-0.4 -0.8,-0.6 -1.7,-0.4 -1,0.3 -4,0.8 -6.8,1.2 -6,0.8 -15.6,4.6 -19.9,7.8 -3.6,2.7 -7,4.6 -4.3,2.4 1,-0.8 1.4,-1.7 1,-1.9 -0.4,-0.3 -0.3,-0.4 0.3,-0.2 0.6,0.1 2.3,-0.9 3.7,-2.2 1.4,-1.3 3.2,-2.4 4,-2.4 0.7,0 2.2,-0.7 3.3,-1.6 1.8,-1.5 1.8,-1.5 -0.8,-1 -1.4,0.3 -3.4,0.9 -4.5,1.3 -3.1,1.2 0.5,-2.5 4.6,-4.8 2,-1 4.5,-2.5 5.6,-3.2 6.1,-3.7 5.9,-3.5 2.3,-3.4 -1.8,0.1 -3.5,0.5 -3.8,0.9 -0.3,0.4 -4.8,-0.1 -10,-1.1 -5.2,-1 -10,-1.7 -10.7,-1.4 -0.7,0.3 -2.7,0 -4.5,-0.5 -1.8,-0.6 -4.6,-1.3 -6.3,-1.6 -2.7,-0.6 -2.8,-0.5 -1,0.6 1.1,0.6 5.6,2.7 9.9,4.5 10.7,4.4 12.4,6.8 5.5,7.9 -2.9,0.5 -3.9,1.1 -3.5,2.1 0.5,1.2 -0.1,1.3 -2.7,0.8 -1.7,-0.3 -5.7,-1.1 -8.7,-1.6 -22.3,-4.2 -34.7,-11.4 -37.9,-21.9 -2.4,-8.1 -4,-18.9 -3.5,-24.2 0.2,-2.1 0,-3.8 -0.4,-3.8 -0.4,0 -2.2,1.6 -3.9,3.5 -3.3,3.6 -5.6,4.4 -6.9,2.3 -0.4,-0.6 -0.3,-0.8 0.4,-0.4 0.6,0.3 1.3,0.2 1.7,-0.4 0.3,-0.6 -0.4,-1 -1.7,-1.1 -2.2,0 -2.2,-0.1 -0.3,-0.8 1.7,-0.7 2,-1.7 2,-7.5 0,-11 -2.2,-7.6 -5,7.7 -1.6,9.1 -1.6,10.4 -0.1,20.2 0.9,5.8 2.5,12.8 3.5,15.5 1.1,2.8 1.5,4.8 1,4.5 -1.3,-0.9 -4.5,-12.2 -5.9,-21.2 -0.9,-6.1 -1,-10.1 -0.1,-16 1.8,-13.3 2.7,-15.2 9.6,-21.8 5.9,-5.6 14,-18.5 11.6,-18.5 -0.5,0 -3.7,0.7 -7.1,1.6 -3.4,0.8 -6.4,1.4 -6.6,1.1 -0.3,-0.2 1.2,-1.7 3.3,-3.3 2.1,-1.6 9.2,-8.4 15.8,-15.2 10.8,-11.1 12.5,-12.5 16.5,-13.2 6.2,-1.2 18.3,0.4 27.7,3.5 14.8,4.9 36.2,16.5 44.2,23.9 4.6,4.2 3,1.7 -4.9,-7.9 -10.4,-12.7 -10.2,-12 -3.4,-9 11.8,5.1 35.6,22.8 40.7,30.2 3.3,4.8 4.9,13.9 2.5,14.8 -2.6,1 -8.3,-2.3 -14.2,-8.4 -3.2,-3.4 -6.1,-6 -6.3,-5.7 -0.2,0.2 1.9,4.9 4.7,10.5 5.7,11.3 6.7,12.2 21,20.2 13.2,7.3 21.4,13.2 29.4,21.3 5.9,6 6.6,7.1 5,7.6 -1.1,0.4 -9.1,0.6 -17.9,0.5 -14,-0.2 -16.7,-0.5 -21.8,-2.4 -3.2,-1.3 -6,-2.1 -6.3,-1.8 -0.3,0.2 -0.7,2.6 -1,5.3 -0.7,7.1 0.8,9.2 9.2,12.8 9.3,4.1 12,6 14,9.7 6.3,12.2 -14.9,26.1 -41.6,27.4 -6.4,0.3 -11.4,0 -15.2,-1 z m 15,-63.7 c -4,-5.7 -13.5,-14.6 -18.8,-17.6 -4.7,-2.7 -5,-3.1 -3.5,-4.6 1.8,-1.8 7.7,-2 16,-0.6 5.2,0.8 7.1,0.5 3.9,-0.7 -5.6,-2 -14.4,-12.8 -14.4,-17.6 0,-0.9 -0.5,-1.9 -1.2,-2.3 -0.6,-0.4 -0.8,-0.3 -0.5,0.3 0.3,0.5 0,2.9 -0.8,5.4 -0.7,2.4 -1.4,3.6 -1.4,2.7 -0.1,-0.9 0.3,-2.8 0.9,-4.2 0.7,-2.1 0.5,-3.1 -1.4,-5.3 -1.2,-1.5 -2.6,-3.7 -3,-4.7 -1,-2.9 -1.1,-1.8 -0.8,7.3 0.3,7.2 0.6,8.4 2.3,8.8 1,0.3 1.9,0.9 1.9,1.4 0,1.3 -7.1,-2 -12.2,-5.8 -2.6,-1.8 -6.6,-5.6 -8.9,-8.4 -2.3,-2.7 -4.3,-4.8 -4.5,-4.6 -0.2,0.2 0.3,2.3 1.1,4.7 0.8,2.4 1.3,4.5 1,4.8 -0.2,0.2 -2.4,-0.1 -4.9,-0.7 -10.3,-2.6 -22.9,-0.2 -33.7,6.2 l -4.4,2.7 h 7.3 c 10.2,0 13.8,1.7 15.2,7.2 2.4,9 5,10.2 29.9,13.3 6.3,0.8 13.7,2.2 16.5,3.1 5.1,1.7 17.7,9.2 19,11.3 0.4,0.6 0.9,1.1 1.2,1.1 0.3,0 -0.5,-1.5 -1.8,-3.2 z m 25.8,-35.5 c -0.2,-0.2 -1.1,0 -2,0.3 -1.4,0.5 -1.5,0.9 -0.5,1.5 1.2,0.7 3.4,-1 2.5,-1.8 z"
       id="path576-9-0" /><path
       d="m 711.1,399.9 c -1.7,-5.1 -1.4,-14 0.8,-17.4 1,-1.7 4.4,-5.9 7.6,-9.4 5.7,-6.1 5.9,-6.2 6.8,-3.9 0.5,1.2 0.7,5.5 0.5,9.3 -0.5,10.7 -8,24.5 -13.3,24.5 -0.7,0 -1.8,-1.4 -2.4,-3.1 z m 7,-1.6 c 3.1,-3.5 5.5,-8.6 6.8,-14.3 1.3,-5.8 1.4,-8.3 0.1,-7.5 -0.6,0.3 -1.3,0 -1.6,-0.8 -0.3,-0.8 -1.1,-1.4 -1.9,-1.3 -2,0.3 -4.6,2.7 -3.9,3.7 0.3,0.5 -0.1,0.9 -1,0.9 -2.4,0 -5.6,6.3 -5.6,11.2 0,10.8 2.3,13.4 7.1,8.1 z"
       id="path577-9-4" /><path
       d="m 714.5,397 c -1.9,-0.8 -1.9,-0.9 0.2,-0.9 1.2,-0.1 2.5,0.4 2.8,0.9 0.7,1.2 -0.2,1.2 -3,0 z"
       id="path578-4-8" /><path
       d="m 715.5,385.1 c -2.8,-0.6 -2.8,-0.7 -0.8,-1.3 1.3,-0.4 2.7,0 3.4,0.8 0.6,0.8 1,1.3 0.8,1.3 -0.2,-0.1 -1.7,-0.4 -3.4,-0.8 z"
       id="path579-4-0" /><path
       d="m 719,378.2 c 0,-0.5 1.4,-0.7 3,-0.4 1.7,0.2 3,0.6 3,0.8 0,0.2 -1.3,0.4 -3,0.4 -1.6,0 -3,-0.4 -3,-0.8 z"
       id="path580-1-3" /><path
       d="m 589.1,395.4 c -1.2,-2.7 -1.1,-2.8 0.4,-1.2 1,0.9 1.6,2.1 1.3,2.8 -0.2,0.7 -1,-0.1 -1.7,-1.6 z"
       id="path581-2-9" /><path
       d="m 604.2,393.6 c 0.6,-1.4 1.7,-2.7 2.5,-3 0.9,-0.4 0.7,0.4 -0.7,2.4 -2.6,3.6 -3.3,3.9 -1.8,0.6 z"
       id="path582-9-4" /><path
       d="m 609.8,386.5 c 1.1,-1.6 3.7,-4.6 5.7,-6.5 l 3.6,-3.5 -2.8,-0.6 c -2.3,-0.6 -2.1,-0.7 1.6,-0.8 l 4.4,-0.1 -3.7,3.3 c -2,1.7 -5.3,5 -7.2,7.2 -2.4,2.7 -2.9,3 -1.6,1 z"
       id="path583-4-5" /><path
       d="m 578.4,385.4 c -2.1,-1.5 -5.4,-3.8 -7.3,-5.3 -3.8,-2.9 -16.8,-17.5 -18.3,-20.6 -0.6,-1.4 -0.3,-1.3 1.2,0.5 1.1,1.4 3.6,4.3 5.5,6.5 1.9,2.2 4.3,5.1 5.4,6.3 1.2,1.4 2.5,2.1 3.2,1.6 0.7,-0.4 0.9,-0.3 0.5,0.4 -0.8,1.3 3.2,5.2 9.7,9.3 4.2,2.8 5.5,3.9 4.3,3.9 -0.2,0 -2.1,-1.2 -4.2,-2.6 z"
       id="path584-7-1" /><path
       d="m 546.5,365.5 c -1.5,-2.5 -2.5,-4.9 -2.1,-5.2 0.3,-0.4 0.6,-0.2 0.6,0.3 0,0.6 0.7,1.9 1.5,3 1.4,1.7 1.5,1.3 0.9,-4.6 -0.4,-3.6 -0.4,-6.2 0,-5.9 0.3,0.3 0.8,3.5 1,7.2 0.2,3.6 0.7,7.1 1.1,7.7 0.4,0.6 0.5,1.4 0.2,1.6 -0.3,0.3 -1.7,-1.5 -3.2,-4.1 z"
       id="path585-3-1" /><path
       d="m 550,354.6 c -1.5,-4.2 -1.1,-5.5 0.6,-1.7 0.8,1.9 1.2,3.6 0.9,3.9 -0.2,0.3 -0.9,-0.7 -1.5,-2.2 z"
       id="path586-0-0" /><path
       d="m 471.5,286.1 c -4.8,-2.3 -4.4,-2.6 1,-0.6 2.2,0.8 5.3,1.4 6.9,1.5 h 3 l -2.7,-2.7 c -3.6,-3.8 -5.7,-9.4 -5.6,-14.5 l 0.2,-4.3 0.7,5 c 0.9,6.7 2.2,9.5 6.3,13.8 l 3.4,3.7 h -4.6 c -2.5,0 -6.4,-0.9 -8.6,-1.9 z"
       id="path587-9-7" /><path
       d="m 461.8,280.7 c -6.4,-4.9 -10.9,-14.2 -10.9,-22.9 -0.1,-9.1 2.3,-15.7 7.8,-21.8 7.6,-8.5 15.9,-11.3 29.2,-9.9 9.1,1 21.5,6.8 29,13.5 l 5.2,4.7 -4,2.3 -4,2.2 -6.3,-3.3 c -12.4,-6.6 -26,-8.6 -34.3,-5.1 -8,3.4 -14.1,11.6 -15.1,20.4 -0.6,5.4 3.2,17 6.9,21 2.9,3.2 1.6,2.7 -3.5,-1.1 z"
       id="path588-0-0" /><path
       d="m 475,264.7 c 0,-1.8 3.1,-6.6 5.6,-8.6 l 2.6,-2 -2.9,-0.8 c -4.9,-1.3 -12.1,-0.6 -16.5,1.7 -3,1.6 -3.8,1.7 -2.9,0.6 0.8,-0.9 3.8,-2.3 6.7,-3.2 4.4,-1.2 6.4,-1.3 10.6,-0.4 7.6,1.5 8.3,2.3 4.4,4.4 -1.8,0.9 -4.3,3.4 -5.4,5.4 -1.2,2 -2.2,3.3 -2.2,2.9 z"
       id="path589-3-4" /></g><g
     id="g1252"
     inkscape:label="grey"
     transform="translate(-559.70596,18.225593)"><path
       d="m -706.84737,2774.2713 c -15.9,-1.7 -31.9,-8.9 -46.2,-20.9 -6.7,-5.6 -8.2,-8.2 -6.4,-11.1 0.9,-1.2 1.4,-1.1 3.8,1.1 1.5,1.4 5.1,4.1 7.8,6 l 5,3.3 -3.5,-4.2 c -8.7,-10.5 -8.9,-11 -8.7,-19.9 0.1,-9.3 -0.7,-9.1 8.2,-1.7 7.3,6 12.2,9 19.5,12 6.3,2.6 18.1,5.6 18.8,4.9 0.3,-0.2 -2.6,-1.8 -6.3,-3.4 -3.7,-1.7 -9.7,-5.2 -13.3,-7.8 -8.1,-5.8 -24.1,-21.9 -24.9,-25.1 -0.5,-2.2 4.1,-16.2 5.4,-16.2 0.3,0 3.1,2.5 6.3,5.6 6.2,6 17.5,14.1 25.3,18 2.6,1.4 8.9,3.9 14,5.6 7.7,2.6 11.1,3.2 21.2,3.5 8.8,0.3 13.1,0.1 16,-1 l 4,-1.4 -10.5,-0.7 c -12.1,-0.9 -22.1,-3.2 -31.2,-7.4 -10.7,-4.8 -23.7,-14 -32.6,-23 l -8.3,-8.3 4.1,-7.7 c 2.3,-4.2 5.5,-9.7 7.1,-12.2 2.3,-3.5 1,-2.4 -6,4.9 l -9,9.3 -5.1,-10.2 c -3.4,-6.8 -5,-11 -4.6,-12.5 0.3,-1.2 3.3,-5.2 6.7,-8.8 3.3,-3.7 5.8,-6.7 5.5,-6.7 -0.4,0 -3.7,2.5 -7.3,5.5 -6.6,5.4 -6.8,5.5 -7.7,3.3 -1.2,-2.9 -1.4,-22.2 -0.3,-26.3 l 0.8,-3 -2.4,2.6 c -5.5,5.8 -7.2,10.7 -7.1,20.4 0.1,5 0.7,10.8 1.2,12.9 1.1,3.7 0.9,4.1 -3.4,10.2 -2.5,3.5 -4.9,6.6 -5.3,6.9 -0.4,0.2 -3.2,-0.3 -6.1,-1.3 l -5.2,-1.7 0.4,-7.5 c 0.8,-12.7 10.1,-31.4 21.1,-42.2 15.9,-15.7 34.9,-23.6 59.2,-24.5 10.4,-0.5 13.5,-0.2 23.5,2.1 19.3,4.4 36.9,14.2 49.2,27.4 10.6,11.6 17.9,24.3 21.9,38.7 3.2,11 3.4,35.6 0.5,45.5 -6.8,23 -20.4,41.9 -38.5,53.4 -16.5,10.6 -37.3,15.6 -56.6,13.6 z"
       id="path99-0-5"
       sodipodi:nodetypes="ccccccccccccccsccccccccccccccsccscccccccccccccccccccc"
       style="display:inline;fill:#9b9b9b;fill-opacity:1;stroke:#000000;stroke-opacity:1" /><path
       d="m -761.64737,2696.5713 c -0.3,-0.4 -2.2,-5 -4.2,-10.1 l -3.6,-9.2 2.5,-5.5 c 1.4,-3 2.7,-5.5 3,-5.5 0.3,0 2,2.8 3.7,6.3 1.7,3.4 3.9,7.3 4.9,8.7 1.8,2.5 1.7,2.6 -2,9.4 -2.1,3.7 -4,6.4 -4.3,5.9 z"
       id="path120-4-1"
       style="display:inline;fill:#9b9b9b;fill-opacity:1" /></g><g
     id="g1253"
     inkscape:label="red"
     transform="translate(-563.66804)"><path
       d="m 1545.3333,652.67249 c 11.5,-19.9 17.5,-37 19.9,-56.1 l 1.2,-10.2 1.8,5.5 c 3,9.7 4.1,21 2.7,28.9 -1.4,7.7 -6.3,18.8 -10.4,23.7 -2.8,3.3 -16.7,14.4 -18.1,14.4 -0.4,0 0.9,-2.8 2.9,-6.2 z"
       id="path39-0-6"
       style="display:inline;fill:#8c281d;fill-opacity:1"
       transform="translate(-2019.2024,2244.6183)" /><path
       d="m 1629.6333,601.17249 c 9.8,-9.9 18.4,-22.1 23.8,-33.7 3.7,-8 7.4,-20.9 7.4,-25.7 0,-5.2 1.6,-3.8 3.9,3.2 6.4,19.9 -0.8,39.7 -18.9,51.9 -6.4,4.3 -19.5,11.5 -22.7,12.5 -1.4,0.4 1.1,-2.8 6.5,-8.2 z"
       id="path70-1-1"
       style="display:inline;fill:#8c281d;fill-opacity:1"
       transform="translate(-2019.2024,2244.6183)" /><path
       d="m 1519.4333,592.37249 c -5.6,-13.6 -6.3,-15 -9.7,-19.5 -11.8,-15.6 -20.8,-33.9 -22.3,-45.7 -0.5,-3.9 0,-8 2,-16.5 3,-13.2 6.5,-24.7 9.1,-30.3 l 1.8,-4 0.2,7 c 0.7,21.1 3.8,35.2 13.2,60.2 7.6,20.2 9.3,28.3 8.9,43.8 l -0.3,12 z"
       id="path78-9-0"
       style="display:inline;fill:#8c281d;fill-opacity:1"
       transform="translate(-2019.2024,2244.6183)" /><path
       d="m 1618.5333,581.77249 c -2.8,-7.8 -3.7,-12.3 -3.7,-19.4 0.1,-16.2 4.9,-27.9 18,-43.4 8.7,-10.3 11.7,-15.8 13.4,-24.3 0.6,-3.2 1.4,-5.8 1.8,-5.8 1.4,0 4,10.5 4.5,18.1 0.8,11.6 -3.7,23 -15.6,38.9 -9,12 -12.6,19.5 -14.9,31.1 l -1.9,9.1 z"
       id="path87-0-7"
       style="display:inline;fill:#8c281d;fill-opacity:1"
       transform="translate(-2019.2024,2244.6183)" /><path
       d="m 1589.7333,568.77249 c -8.1,-9.9 -16,-26.1 -20,-40.5 -1.9,-6.9 -2.1,-9.5 -1.6,-23.3 0.3,-8.6 0.8,-16.7 1.3,-18.1 0.7,-2.4 0.6,-2.4 -1.8,0.5 -8.5,10 -15.2,25.2 -16.4,37.4 -0.8,7 0.9,17.6 4.1,25.4 1.2,3.1 2,5.7 1.6,5.7 -1,0 -10.7,-14.9 -14.2,-22 -8.8,-17.9 -12.4,-35.9 -11.6,-57.9 0.9,-23.2 5.6,-40.6 17.5,-64.4 0.9,-1.7 -11.9,8.6 -18,14.5 -8.3,8.2 -11.2,12.1 -17,23.2 -4.2,8 -4.7,8.7 -4.8,5.9 0,-1.8 0.5,-5.4 1.1,-8 7.4,-30.9 12.5,-39.4 34.5,-58.4 10.3,-8.9 17.9,-17.6 30.4,-35.3 11.3,-15.8 24.1,-28 38.9,-36.8 6.2,-3.7 11.7,-6.8 12.3,-7 2.7,-0.9 -7,-14.5 -15.8,-22 -15.8,-13.6 -43.8,-22.3 -65.4,-20.3 -6.2,0.6 -20.8,3.7 -28.2,6 -1,0.4 -1.8,0.2 -1.8,-0.3 0,-1.3 18.3,-9.7 26.4,-12.1 8.2,-2.5 27,-5.1 36.9,-5.1 10.9,0 18.8,1.6 34.7,7 7.9,2.7 14.5,4.8 14.6,4.7 0.7,-0.7 -15.9,-11.9 -22.3,-15.1 -14.6,-7.3 -39.8,-14.6 -51,-14.6 l -5.8,-0.1 3.3,-1.4 c 6.8,-3 20.2,-4.8 31.2,-4.2 19.9,1.1 33.6,7.7 51.4,24.9 6.1,6 11.4,10.8 11.8,10.8 2.3,0 -7.9,-24.2 -12.2,-28.8 -1.2,-1.3 -2,-2.6 -1.7,-2.9 0.8,-0.7 10.2,2.9 18.7,7.2 25.4,12.8 37.6,27.2 46.2,54.4 1.1,3.5 2.2,7.1 2.6,7.9 0.3,1 -1.4,0.2 -4.4,-1.9 -14,-10.2 -26.4,-15.5 -44.6,-19 -9.6,-1.9 -24.1,-2.3 -30.3,-1 -3,0.6 -3,0.6 1.5,2 5.5,1.6 17,7.3 22.7,11.2 2.3,1.6 4.6,2.9 5.2,2.9 2.3,0 1,1.9 -1.6,2.4 -2.6,0.6 -6,-0.1 -10.5,-1.9 -1.7,-0.7 -1.7,-0.5 -0.2,3.1 1.5,3.7 1.5,3.9 -0.4,5.2 -1.2,0.8 -6.4,6.5 -11.7,12.7 -9.4,11 -20,20.2 -27.9,24.2 l -3.8,2 2.8,1.1 c 1.6,0.6 4,1.3 5.4,1.4 2.5,0.4 2.5,0.4 -0.7,2.1 -4.8,2.6 -13.5,11.6 -16.6,17.1 -2.9,5.3 -6,14.6 -7.2,21.6 l -0.8,4.5 7.5,-7 c 7.2,-6.8 22.2,-16.4 23.5,-15.1 1.1,1 -3.5,15.3 -7.8,24.6 -5.1,10.8 -12.1,19.9 -24.9,32.5 -12.1,11.7 -16.1,17.4 -19.3,27.5 -2.2,6.8 -4.3,19 -3.3,19 0.2,0 1.5,-1.9 2.9,-4.2 5.6,-9.6 12.2,-17.2 24.9,-28.6 12.9,-11.7 21.4,-21.1 23.9,-26.6 0.7,-1.4 1.6,-2.6 2.1,-2.6 1.5,0 0.9,23.7 -0.8,31.3 -0.9,4 -4.2,14 -7.4,22.2 -6,15.8 -7.6,22.6 -8.4,36.5 l -0.4,8.5 2.1,-5 c 5,-11.4 12.1,-22.8 23,-36.9 3.2,-4.1 7.6,-10.9 9.6,-15.1 l 3.8,-7.7 0.6,3.9 c 1.1,6.3 0.8,16.4 -0.7,23.3 -1.9,8.7 -5.2,16.1 -12.3,26.6 -15.5,23.3 -18.2,31 -20.7,58.3 l -1.1,12.4 z"
       id="path92-1-9"
       style="display:inline;fill:#8c281d;fill-opacity:1"
       transform="translate(-2019.2024,2244.6183)" /><path
       d="m 1460.4333,491.87249 c -2.4,-5.8 -3.3,-25.7 -1.6,-37.2 1.8,-12.8 7.7,-28.4 14.8,-39.8 7.1,-11.2 24.3,-26.7 38.7,-35 5.2,-3 20.5,-8.4 20.5,-7.3 0,0.3 -5.1,5.8 -11.3,12.3 -13.8,14.3 -21.1,23.1 -30.9,37.5 -7.8,11.3 -17,28.7 -21.2,39.8 -2.1,5.7 -6.2,24.2 -6.8,31.2 -0.3,2.9 -0.3,2.9 -2.2,-1.5 z"
       id="path118-4-0"
       style="display:inline;fill:#8c281d;fill-opacity:1"
       transform="translate(-2019.2024,2244.6183)" /><path
       d="m 1441.8333,408.17249 c 0,-1.8 6.8,-17.3 10.7,-24.3 9.2,-16.6 19.8,-28.4 35.3,-39 6,-4 22.8,-13 24.6,-13 0.9,0 7,18.8 6.2,19.5 -0.2,0.1 -5,3.1 -10.8,6.7 -12.6,7.6 -38.8,26.2 -46.8,33.1 -3.1,2.7 -8.7,7.8 -12.4,11.5 -3.8,3.6 -6.8,6.1 -6.8,5.5 z"
       id="path144-6-8"
       style="display:inline;fill:#8c281d;fill-opacity:1"
       transform="translate(-2019.2024,2244.6183)" /><path
       d="m 1471.8333,315.27249 c 9,-9.1 17.6,-15.4 26.2,-19.3 6.4,-2.9 24.9,-8.4 25.7,-7.6 0.2,0.3 -0.2,1.2 -1,2.1 -0.8,0.9 -2.7,4.4 -4.4,7.7 -3,6.1 -3.1,6.2 -11.5,9.8 -9.4,4 -39.6,14.9 -41.3,14.9 -0.7,0 2.2,-3.4 6.3,-7.6 z"
       id="path164-7-5"
       style="display:inline;fill:#8c281d;fill-opacity:1"
       transform="translate(-2019.2024,2244.6183)" /><path
       d="m 1742.9333,314.77249 c -4,-2.1 -9.8,-4.6 -12.7,-5.5 -8.9,-2.8 -8.9,-2.8 -7.6,-12.2 0.7,-5.2 0.8,-9.9 0.2,-13.5 -1.1,-7 -3.1,-13.7 -4,-13.7 -0.4,0 -1.1,2.6 -1.5,5.8 -0.9,7.2 -5.3,24.2 -6.7,25.9 -1.6,2 -2.8,1.5 -2.8,-1.1 0,-10.1 -7.6,-32.6 -14.1,-41.8 -4.1,-5.7 -0.9,-4 6.6,3.4 l 7.5,7.6 v -7.2 c 0,-6.8 -0.2,-7.5 -3.5,-11.3 -2,-2.3 -6.3,-6.1 -9.8,-8.4 l -6.2,-4.2 4.3,0.7 c 10.2,1.5 24,7.6 30.3,13.3 10.2,9.3 15.3,26.8 11.8,40.9 -0.6,2.5 -0.9,4.8 -0.5,5.1 1.8,1.8 9.6,-9.3 9.6,-13.7 0,-3.9 1.7,-1.9 4.5,5.3 2.9,7.8 4.3,20 2.9,25.3 l -0.9,3.1 z"
       id="path165-0-2"
       style="display:inline;fill:#8c281d;fill-opacity:1"
       transform="translate(-2019.2024,2244.6183)" /></g><g
     id="g1254"
     inkscape:label="white"
     style="fill:#e7e4d9;fill-opacity:1"
     transform="translate(-51.232142,760.57126)"><path
       d="m -798.3677,1975.5268 c -21.7,-1 -22.3,-1.5 -10.7,-8.4 4.2,-2.5 7.7,-4.6 7.8,-4.6 0,0 0.2,1.2 0.3,2.6 0.2,3.7 1.7,4.4 10.4,4.4 9.7,0 17,-2.2 20.2,-6 1.4,-1.6 2.8,-2.6 3.1,-2.3 1.8,1.9 -0.6,10.3 -3.8,13.6 -1.9,1.9 -1.1,1.8 -27.3,0.7 z"
       id="path160"
       style="display:inline;fill:#e7e4d9;fill-opacity:1" /><path
       d="m -793.0677,1949.2268 c -0.3,-1.2 -0.6,-4.5 -0.6,-7.3 0,-7.6 1.2,-8.3 24.5,-13.9 16.5,-4.1 21.5,-2.7 21.5,5.8 0,5.1 -3.4,11 -8.2,14.2 -2,1.4 -3.9,2.5 -4.2,2.5 -0.2,0 0.5,-1.7 1.5,-3.7 2.2,-4.4 2.5,-10.1 0.5,-12.8 -1.1,-1.5 -2.2,-1.7 -6.2,-1.2 -11.4,1.3 -16.8,4.4 -24.4,13.9 -3.5,4.3 -3.8,4.5 -4.4,2.5 z"
       id="path161"
       style="display:inline;fill:#e7e4d9;fill-opacity:1" /><path
       d="m -842.26982,1852.9758 c -3.1,-1.2 -5.4,-4.9 -5.4,-8.7 0,-2.6 0.4,-3.3 2,-3.3 1.5,0 2,0.7 2,2.4 0,4.2 3.9,7.7 9.4,8.3 3.1,0.4 4.3,0.9 3.4,1.4 -1.7,1.1 -8.7,1 -11.4,-0.1 z"
       id="path162"
       style="display:inline;fill:#e7e4d9;fill-opacity:1" /></g></g></svg>
